<?xml version="1.0" encoding="utf-8"?>
<!-- Generator: Adobe Illustrator 25.4.1, SVG Export Plug-In . SVG Version: 6.00 Build 0)  -->
<svg version="1.1" id="Layer_1" xmlns="http://www.w3.org/2000/svg" xmlns:xlink="http://www.w3.org/1999/xlink" x="0px" y="0px"
	 viewBox="0 0 394 515" style="enable-background:new 0 0 394 515;" xml:space="preserve">
<style type="text/css">
	.st0{fill:#FFFFFF;}
</style>
<g>
	<path class="st0" d="M60,34.9C49.5,38.4,40,49,37.8,59.7c-4.3,20.6,16.3,41.2,36.9,36.9c15.5-3.2,27.5-19,26-33.9
		c-1.1-10.5-9-21.3-19-26.2C75.6,33.6,66.2,32.9,60,34.9z"/>
	<path class="st0" d="M188,34.9c-15.1,5-25.3,21.6-22.2,36.2c2.5,11.9,13.6,23,25.4,25.5c19.4,4.1,39.5-14.2,37.5-33.9
		c-1.1-10.5-9-21.3-19-26.2C203.6,33.6,194.2,32.9,188,34.9z"/>
	<path class="st0" d="M316,34.9c-10.5,3.5-20,14.1-22.2,24.8c-4.3,20.6,16.3,41.2,36.9,36.9c15.5-3.2,27.5-19,26-33.9
		c-1.1-10.5-9-21.3-19-26.2C331.6,33.6,322.2,32.9,316,34.9z"/>
	<path class="st0" d="M60,162.9c-10.5,3.5-20,14.1-22.2,24.8c-4.3,20.6,16.3,41.2,36.9,36.9c15.5-3.2,27.5-19,26-33.9
		c-1.1-10.5-9-21.3-19-26.2C75.6,161.6,66.2,160.9,60,162.9z"/>
	<path class="st0" d="M188,162.9c-15.1,5-25.3,21.6-22.2,36.2c2.5,11.9,13.6,23,25.4,25.5c19.4,4.1,39.5-14.2,37.5-33.9
		c-1.1-10.5-9-21.3-19-26.2C203.6,161.6,194.2,160.9,188,162.9z"/>
	<path class="st0" d="M316,162.9c-10.5,3.5-20,14.1-22.2,24.8c-4.3,20.6,16.3,41.2,36.9,36.9c15.5-3.2,27.5-19,26-33.9
		c-1.1-10.5-9-21.3-19-26.2C331.6,161.6,322.2,160.9,316,162.9z"/>
	<path class="st0" d="M60,290.9c-10.5,3.5-20,14.1-22.2,24.8c-4.3,20.6,16.3,41.2,36.9,36.9c15.5-3.2,27.5-19,26-33.9
		c-1.1-10.5-9-21.3-19-26.2C75.6,289.6,66.2,288.9,60,290.9z"/>
	<path class="st0" d="M188,290.9c-10.5,3.5-20,14.1-22.2,24.8c-4.3,20.6,16.3,41.2,36.9,36.9c15.5-3.2,27.5-19,26-33.9
		c-1.1-10.5-9-21.3-19-26.2C203.6,289.6,194.2,288.9,188,290.9z"/>
	<path class="st0" d="M316,290.9c-10.5,3.5-20,14.1-22.2,24.8c-4.3,20.6,16.3,41.2,36.9,36.9c15.5-3.2,27.5-19,26-33.9
		c-1.1-10.5-9-21.3-19-26.2C331.6,289.6,322.2,288.9,316,290.9z"/>
	<path class="st0" d="M60,418.9c-10.5,3.5-20,14.1-22.2,24.8c-4.3,20.6,16.3,41.2,36.9,36.9c15.5-3.2,27.5-19,26-33.9
		c-1.1-10.5-9-21.3-19-26.2C75.6,417.6,66.2,416.9,60,418.9z"/>
	<path class="st0" d="M188,418.9c-10.5,3.5-20,14.1-22.2,24.8c-4.3,20.6,16.3,41.2,36.9,36.9c15.5-3.2,27.5-19,26-33.9
		c-1.1-10.5-9-21.3-19-26.2C203.6,417.6,194.2,416.9,188,418.9z"/>
	<path class="st0" d="M316,418.9c-10.5,3.5-20,14.1-22.2,24.8c-4.3,20.6,16.3,41.2,36.9,36.9c15.5-3.2,27.5-19,26-33.9
		c-1.1-10.5-9-21.3-19-26.2C331.6,417.6,322.2,416.9,316,418.9z"/>
</g>
</svg>
