<?xml version="1.0" encoding="utf-8"?>
<!-- Generator: Adobe Illustrator 25.4.1, SVG Export Plug-In . SVG Version: 6.00 Build 0)  -->
<svg version="1.1" id="Layer_1" xmlns="http://www.w3.org/2000/svg" xmlns:xlink="http://www.w3.org/1999/xlink" x="0px" y="0px"
	 viewBox="0 0 633 370" style="enable-background:new 0 0 633 370;" xml:space="preserve">
<style type="text/css">
	.st0{fill:#C70000;}
</style>
<g>
	<g>
		<path class="st0" d="M120.24,33.06c0.02-0.01,0.04-0.02,0.04-0.02c-0.02,0-0.04,0-0.06-0.01c-0.01,0.02-0.02,0.03-0.03,0.06
			c0.02,0.01,0.03,0.01,0.05,0.02c0.01-0.02,0.03-0.04,0.04-0.07L120.24,33.06z"/>
		<path class="st0" d="M122.44,32.34c0.02,0,0.04,0.01,0.06,0.01c0.01-0.02,0.02-0.03,0.03-0.06L122.44,32.34z"/>
		<path class="st0" d="M81.34,317.29c-0.03,0-0.06,0-0.09,0c0,0.02,0.01,0.04,0.01,0.06c0.02,0,0.04,0.02,0.07,0.02
			C81.33,317.34,81.33,317.32,81.34,317.29z"/>
		<path class="st0" d="M130.69,29.36c0.01,0,0.01,0,0.01,0c0.02-0.02,0.03-0.03,0.05-0.04L130.69,29.36z"/>
		<path class="st0" d="M347.1,112.11c-8.49-17.72-19.57-33.72-34.76-46.56c0,0,0,0,0,0c-0.33-0.22-0.63-0.8-1.03-0.14
			c-0.05,0.08,0.36,0.43,0.56,0.65c0.24,1.16,1.87,1.64,1.57,3.32c-1.7-0.36-2.37-1.8-3.34-2.78c-3.14-3.19-5.78-7.13-9.7-9.24
			c-5.27-2.83-10.13-6.24-15.03-9.56c-26.82-18.22-56.42-27.3-88.81-28.39c-10.8-0.36-21.08,2.89-31.71,2.73
			c-10.3-0.16-19.85,2.7-29.32,6.22c-1.49,0.55-3,1.68-4.81,1.01c-1.62,1.72-3.77,2.03-5.96,2.23c-0.5,0.99-1.35,0.97-2.25,0.76
			c-0.49,1.01-1.28,1.16-2.25,0.75c-0.5,0.95-1.15,1.48-2.23,0.76c0.16,1.07-0.91,1.02-1.38,1.18c-22.31,7.47-39.79,21.97-56,38.32
			c-13.3,13.42-23.13,29.11-30.22,46.55c-0.84,2.07-2.01,4.1-1.61,7.24c2.6-3.36,3.86-6.67,5.42-9.81
			c6.19-12.44,11.98-25.14,22.63-34.67c0.45-0.46,0.93-1.44,1.57-0.76c0.45,0.48-0.5,1-0.97,1.4c-5.38,8.19-11.77,15.79-15.5,25.45
			c2.67-0.98,2.85-4.07,6.39-4.98c-4,6.56-6.45,12.85-10.31,18.41c-0.34,0.49-0.88,1.11-1.39,1.19c-2.07,0.33-2.59,1.93-3.39,3.48
			c-10.3,20.13-12.68,41.79-12.5,63.96c0.04,5.32,0.94,10.63,0.05,16c-0.14-1.07-0.28-2.14-0.42-3.21
			c-0.13-0.38-0.25-0.75-0.38-1.13c-0.09-1.12-0.17-2.24-0.26-3.36c0.12-0.89,0.15-1.76-0.55-2.47c-0.34-1.92-0.68-3.83-1.02-5.75
			c0.07-0.58,0.08-1.14-0.45-1.55c-0.05-0.48-0.11-0.96-0.16-1.44c0-3.87,0-7.73,0-11.6c-1.5,6.31-1.77,12.66-1.3,19.05
			c0.05,1.02,0.11,2.03,0.16,3.05c-0.21,0.62-0.09,1.18,0.35,1.67c0.02,0.41,0.04,0.82,0.06,1.23c-0.05,0.08-0.17,0.17-0.15,0.23
			c0.04,0.17,0.14,0.33,0.21,0.5c0.02,0.53,0.05,1.06,0.07,1.58c0.01,0.25,0.01,0.49,0.02,0.74c0.03,0.51,0.06,1.01,0.08,1.52
			c-0.08,0.82-0.02,1.61,0.52,2.29c0.06,0.98,0.12,1.95,0.17,2.93c0.04,0.24,0.07,0.48,0.11,0.73c0.16,0.6,0.32,1.19,0.47,1.79
			l-0.13,0.19l0.18,0.18c0.02,0.28,0.04,0.57,0.06,0.85c-0.12,0.92-0.23,1.85,0.52,2.6c-0.07,1.94,0.4,3.79,0.98,5.62
			c0.24,2.78,0.92,5.45,2.02,9c0.5-3.73-0.62-6.32-0.79-9c-0.05-0.5-0.1-1.01-0.15-1.51c-0.1-0.34-0.21-0.68-0.31-1.02
			c-0.03-0.63-0.06-1.25-0.09-1.88c0.06-0.09,0.17-0.18,0.16-0.26c-0.03-0.19-0.12-0.38-0.18-0.57c0-0.49,0-0.99,0-1.48
			c0.07-0.49,0.13-0.97,0.2-1.46c1.36-0.18,1.22,0.78,1.34,1.65c0.46,3.32,0.79,6.67,1.5,9.94c1.25,5.72,2.39,11.52,5.55,17.43
			c0.97-3.48-0.89-6.03-0.19-8.75c3.43,13.29,8.34,25.85,15.98,37.33c1.44,2.17,1.49,5.52,3.33,7.75
			c4.32,5.23,8.71,10.4,12.91,15.74c4.87,6.19,8.36,13.48,14.77,18.43c0.5,0.5,1.01,1.01,1.51,1.51c0.18,0.18,0.35,0.36,0.53,0.53
			c1.57,2.11,3.72,3.55,5.85,5.01c0,0,0,0,0,0c0.56,0.53,1.03,0.45,1.47,0.22c-0.36-0.27-0.71-0.7-1.07-0.64
			c-0.4-0.48-0.81-0.97-1.21-1.45c0,0-0.01-0.06-0.03-0.12l0.03,0.12c1.92-1.31,2.46,0.64,3.47,1.48l-0.01,0
			c-0.41,0.1-0.79,0.41-1.18,0.61c0.39,0.29,0.78,0.38,1.19-0.61c6.42,4.47,12.5,9.54,19.3,13.31
			c37.47,20.79,77.26,27.69,119.47,18.87c15.74-3.29,30.97-8.5,44.93-16.17c19.68-10.81,36.55-25.47,50.47-43.21
			c21.26-27.11,33.25-57.8,35.58-92.27c0.48-7.09-0.32-14.21,0.68-21.23C360.36,156.63,357.45,133.73,347.1,112.11z M320.49,76.74
			c0.43,0.22,0.89,0.69,0.56,1.02c-0.4,0.39-0.82,0.03-0.85-0.57c-2-1.11-3.15-3.08-4.73-4.62c-0.59-0.57-1.01-1.32-1.18-2.31
			C317.01,71.76,318.56,74.45,320.49,76.74z M83.04,319.33l0.03,0.11C83.05,319.38,83.04,319.33,83.04,319.33z M82.78,319.27
			c-0.49-0.65-1.41-0.98-1.53-1.92c-0.86-0.18-1.44-0.62-1.48-1.58c-0.42-0.78-0.76-1.79-1.3-2.27c0.53,0.48,0.87,1.49,1.3,2.27
			c0.86,0.18,1.94,0.14,1.57,1.52C82.7,317.26,83.67,317.54,82.78,319.27z"/>
		<path class="st0" d="M124.75,31.59c0.01-0.01,0.01-0.02,0.02-0.03l-0.04,0.02c0.02-0.01,0.04-0.02,0.04-0.02
			c-0.01,0-0.01-0.01-0.02-0.01c-0.02,0.02-0.03,0.03-0.05,0.05C124.72,31.6,124.73,31.59,124.75,31.59z"/>
		<path class="st0" d="M218.99,19.24c-8.15-5.21-60.46-4.75-68.02,2.11C173.66,18.94,196.22,16.1,218.99,19.24z"/>
		<path class="st0" d="M52.71,294.88c-4.62-10.45-10.49-19.07-15.27-28.28C37.86,271.93,47.5,289.97,52.71,294.88z"/>
		<path class="st0" d="M34.13,265.43c-3.22-8.61-6.25-17.36-9.92-25.87C26.59,248.51,28.27,257.72,34.13,265.43z"/>
		<path class="st0" d="M130.76,29.32c-0.01,0-0.02,0-0.02,0c-0.01,0.01-0.03,0.03-0.04,0.04C130.69,29.36,130.76,29.32,130.76,29.32
			z"/>
		<path class="st0" d="M117.98,33.79c-0.01,0.02-0.01,0.03-0.02,0.04c0.02,0.01,0.03,0.02,0.05,0.03c0-0.02,0-0.03,0-0.05
			C118,33.8,117.99,33.8,117.98,33.79z"/>
		<path class="st0" d="M122.53,32.29c-0.02-0.01-0.04-0.01-0.06-0.01c-0.01,0.02-0.02,0.04-0.03,0.06
			C122.44,32.34,122.53,32.29,122.53,32.29z"/>
		<path class="st0" d="M120.22,33.03c0.48-1.04,1.33-1,2.25-0.75c0.51-0.99,1.22-1.37,2.28-0.73c1.61-1.77,3.67-2.34,5.98-2.23
			c2.04-2.5,5.97-1.7,8.41-4.89c-8.58,1.95-16.13,4.89-23.5,8.05c0.34,1.29,1.63,0.72,2.34,1.31
			C118.42,32.63,119.36,32.96,120.22,33.03z"/>
		<path class="st0" d="M128.89,351.46c-2.81-1-4.69-2.38-7.06-2.42C123.8,350.17,125.48,352.08,128.89,351.46z"/>
		<path class="st0" d="M99.74,335.58c-2.9-1.85-5.81-3.69-8.71-5.54c-0.07-0.31-0.12-0.69-0.56-0.45c-0.06,0.03,0.14,0.53,0.22,0.82
			c1.34,4.11,5,4.78,8.49,5.71c0.28,0.59,0.9,1,1.3,0.54C101.06,335.99,99.95,335.99,99.74,335.58z"/>
	</g>
	<g>
		<g>
			<path d="M384.11,156.24c0.61-0.46,1.1-0.99,1.48-1.6c0.3-0.38,0.64-0.72,1.03-1.03c0.38-0.3,0.76-0.64,1.14-1.03
				c0.15-0.15,0.34-0.27,0.57-0.34c0.23-0.07,0.46-0.19,0.68-0.34c0.15-0.15,0.3-0.36,0.46-0.63c0.15-0.27,0.3-0.47,0.46-0.63
				c0.83-0.61,1.69-1.2,2.56-1.77c0.87-0.57,1.73-1.16,2.56-1.77c0.38-0.38,0.82-0.66,1.31-0.85c0.49-0.19,0.97-0.4,1.42-0.63
				c0.68-0.23,1.29-0.53,1.82-0.91c0.53-0.38,1.1-0.83,1.71-1.37c0.53-0.46,1.03-0.72,1.48-0.8c0.46-0.08,0.91-0.08,1.37,0
				c1.14,0.08,2.18,0.27,3.13,0.57c0.95,0.3,1.92,0.65,2.91,1.03c0.53,0.23,0.99,0.57,1.37,1.03c0.84,0.68,1.71,1.37,2.62,2.05
				s1.78,1.44,2.62,2.28c0.53,0.46,1.03,0.93,1.48,1.42c0.46,0.49,0.83,1.12,1.14,1.88l0.34,0.46c0.53,0.3,0.83,0.74,0.91,1.31
				c0.07,0.57,0.07,1.16,0,1.77c0,0.61,0.02,1.22,0.06,1.82c0.04,0.61,0.09,1.22,0.17,1.82c0.15,1.29,0.09,2.55-0.17,3.76
				c-0.27,1.22-0.59,2.39-0.97,3.53c-0.23,0.84-0.51,1.63-0.85,2.39c-0.34,0.76-0.7,1.56-1.08,2.39c-0.23,0.53-0.65,1.1-1.25,1.71
				c-0.53,0.46-1.06,0.89-1.6,1.31c-0.53,0.42-1.1,0.86-1.71,1.31c-0.91,0.68-1.9,0.8-2.96,0.34c-1.52-0.38-2.93-0.87-4.22-1.48
				c-1.22-0.38-1.71-1.25-1.48-2.62c0.23-1.21,0.46-2.43,0.68-3.65c0.23-1.21,0.42-2.43,0.57-3.65l1.03-6.38
				c0.07-0.38,0.11-0.78,0.11-1.2c0-0.42,0.07-0.82,0.23-1.2c-0.08-1.82-0.57-3.11-1.48-3.88c-0.91-0.76-1.99-1.12-3.25-1.08
				c-1.25,0.04-2.62,0.42-4.1,1.14c-1.48,0.72-2.83,1.69-4.05,2.91c-0.84,0.84-1.48,1.75-1.94,2.74c-0.15,0.38-0.34,0.7-0.57,0.97
				c-0.23,0.27-0.42,0.55-0.57,0.85c-0.84,1.22-1.63,2.38-2.39,3.48c-0.76,1.1-1.48,2.26-2.17,3.48c-0.38,0.46-0.65,0.97-0.8,1.54
				c-0.15,0.57-0.34,1.16-0.57,1.77l-1.25,3.19c-0.68,1.98-1.48,3.91-2.39,5.81c-0.91,1.9-1.71,3.84-2.39,5.81l-1.94,5.13
				l-1.48,5.13c-0.3,1.29-0.5,2.53-0.57,3.7c-0.08,1.18,0,2.38,0.23,3.59c0.3,0.84,0.64,1.41,1.03,1.71
				c0.91,0.68,1.82,1.22,2.73,1.6c-0.3,0.08-0.65,0.27-1.03,0.57c0.83,0.84,1.56,1.29,2.17,1.37l0.57-0.34l0.34,0.57
				c0.91-0.07,1.78-0.49,2.62-1.25c0.38-0.38,0.74-0.68,1.08-0.91c0.34-0.23,0.7-0.53,1.08-0.91c0,0.08,0.02,0.11,0.06,0.11
				c0.04,0,0.06,0.04,0.06,0.11c-0.23,0.3-0.44,0.61-0.63,0.91c-0.19,0.3-0.4,0.57-0.63,0.8v0.23l0.8-0.23
				c0.38-0.23,0.74-0.49,1.08-0.8c0.34-0.3,0.7-0.61,1.08-0.91l6.38-6.15c0.15-0.15,0.38-0.3,0.68-0.46
				c-0.15,0.53-0.44,0.97-0.85,1.31c-0.42,0.34-0.82,0.7-1.2,1.08c-0.61,0.46-1.06,1.03-1.37,1.71c1.29-0.99,2.45-2.05,3.48-3.19
				c1.03-1.14,2.07-2.35,3.13-3.65c-0.15,0-0.38,0.08-0.68,0.23c-0.38,0.46-0.8,0.89-1.25,1.31c-0.46,0.42-0.87,0.82-1.25,1.2
				c0.46-0.68,0.95-1.29,1.48-1.82l1.6-1.71c0.61-0.46,0.76-0.91,0.46-1.37l-1.37,0.8c0.15-0.53,0.4-0.93,0.74-1.2
				c0.34-0.27,0.63-0.59,0.85-0.97c-0.76-0.15-1.67-0.3-2.73-0.46l0.46-0.68c-0.3-0.38-0.72-0.57-1.25-0.57
				c-1.22-0.15-1.94-0.91-2.17-2.28h-0.68l-0.8-2.73c0.23,0,0.42-0.04,0.57-0.11c0.15-0.07,0.3-0.11,0.46-0.11l-1.03-2.51
				c0.15-0.15,0.3-0.26,0.46-0.34c0.15-0.07,0.3-0.15,0.46-0.23c0-0.15,0.02-0.32,0.06-0.51c0.04-0.19,0.06-0.4,0.06-0.63
				c0.15,0,0.25-0.02,0.29-0.06c0.04-0.04,0.09-0.06,0.17-0.06c0.38,0.15,0.8,0.34,1.25,0.57c0.46,0.23,0.87,0.46,1.25,0.68
				c0.53,0.38,0.85,0.61,0.97,0.68c0.11,0.08,0.36,0.08,0.74,0c0.61,0,1.06,0.08,1.37,0.23c0.38,0.23,0.78,0.34,1.2,0.34
				c0.42,0,0.89,0,1.42,0c1.44,0.08,2.92,0.13,4.44,0.17c1.52,0.04,3.04,0.06,4.56,0.06c0.53,0.08,1.03,0.1,1.48,0.06
				c0.46-0.04,0.95-0.06,1.48-0.06c-0.15-0.53-0.38-0.7-0.68-0.51c-0.3,0.19-0.65,0.17-1.03-0.06l2.39-0.23
				c0.53,0,0.91-0.04,1.14-0.11c0.46-0.15,0.85-0.23,1.2-0.23s0.66,0.3,0.97,0.91c0.3,0.61,0.74,1.08,1.31,1.42s1.04,0.7,1.42,1.08
				l0.8,1.03c0,0.46-0.21,0.85-0.63,1.2c-0.42,0.34-0.36,0.7,0.17,1.08c-0.3,0.61-0.65,0.89-1.03,0.85c-0.38-0.04-0.76,0.1-1.14,0.4
				l1.03,0.91c-0.15,0.08-0.28,0.15-0.4,0.23c-0.11,0.08-0.25,0.15-0.4,0.23l-2.51,0.23c-0.3,0-0.55,0.02-0.74,0.06
				c-0.19,0.04-0.44,0.21-0.74,0.51c-0.23,0.23-0.38,0.27-0.46,0.11c-0.61-0.15-1.14-0.06-1.6,0.29c-0.46,0.34-0.91,0.59-1.37,0.74
				c-0.38,0.15-0.65,0.5-0.8,1.03c-0.61,1.06-1.06,2.09-1.37,3.08c-0.08,0.08-0.11,0.15-0.11,0.23c0,0.08-0.04,0.19-0.11,0.34
				c-0.15,0.76-0.32,1.5-0.51,2.22c-0.19,0.72-0.32,1.42-0.4,2.11c-0.08,0.61-0.17,1.25-0.28,1.94c-0.11,0.68-0.06,1.33,0.17,1.94
				c0.07,0.08,0.11,0.23,0.11,0.46l0.23,5.7c-0.23-0.3-0.38-0.64-0.46-1.03c-0.3,0.15-0.46,0.34-0.46,0.57
				c-0.08,0.23-0.15,0.46-0.23,0.68c-0.08,0.23-0.3,0.34-0.68,0.34c-0.08,0-0.17,0.13-0.29,0.4c-0.11,0.27-0.28,0.55-0.51,0.85
				c-0.99-0.15-1.92-0.46-2.79-0.91c-0.87-0.46-1.73-1.1-2.56-1.94c-0.15-0.15-0.32-0.29-0.51-0.4c-0.19-0.11-0.36-0.28-0.51-0.51
				h0.8l-0.57-4.44c-0.38,0.53-0.57,1.2-0.57,1.99c0,0.8,0.08,1.58,0.23,2.34c-0.53-0.76-0.76-1.71-0.68-2.85
				c0.07-0.38,0.04-1.06-0.11-2.05c-0.38,0-0.7,0.11-0.97,0.34c-0.27,0.23-0.51,0.46-0.74,0.68c-0.46,0.76-1.01,1.35-1.65,1.77
				c-0.65,0.42-1.27,0.89-1.88,1.42c-0.53,0.46-1.05,0.88-1.54,1.25c-0.5,0.38-1.04,0.68-1.65,0.91c-0.61,0.23-1.22,0.51-1.82,0.85
				c-0.61,0.34-1.22,0.59-1.82,0.74c-0.91,0.38-1.84,0.53-2.79,0.46c-0.95-0.08-1.84-0.3-2.68-0.68c-1.98-0.84-3.82-1.78-5.53-2.85
				c-1.71-1.06-3.44-2.13-5.19-3.19c-0.3-0.15-0.59-0.3-0.85-0.46c-0.27-0.15-0.32-0.42-0.17-0.8l-0.11-0.11
				c-0.07-0.08-0.13-0.11-0.17-0.11c-0.04,0-0.09-0.04-0.17-0.11c-0.15-0.08-0.3-0.13-0.46-0.17c-0.15-0.04-0.3-0.13-0.46-0.28
				c0.15,0.08,0.34,0.11,0.57,0.11c0.15-0.46,0.21-0.72,0.17-0.8c-0.04-0.08-0.25-0.15-0.63-0.23c-0.07,0-0.19-0.07-0.34-0.23
				c-0.15-0.15-0.27-0.32-0.34-0.51c-0.07-0.19-0.19-0.36-0.34-0.51c0.3,0.08,0.59,0.15,0.85,0.23c0.27,0.08,0.59,0.19,0.97,0.34
				l-1.71-6.27c-0.07,0-0.34,0.08-0.8,0.23c-0.23-0.46-0.49-0.93-0.8-1.42c-0.3-0.49-0.53-0.97-0.68-1.42
				c-0.23-0.23-0.46-0.34-0.68-0.34c-0.15-0.08-0.32-0.11-0.51-0.11c-0.19,0-0.36-0.07-0.51-0.23c0.23-0.15,0.49-0.23,0.8-0.23
				c0.3-1.67,0.76-3.25,1.37-4.73c0.61-1.48,1.25-2.98,1.94-4.5c0.3-0.61,0.57-1.27,0.8-1.99c0.23-0.72,0.5-1.38,0.8-1.99
				c0.3-0.61,0.63-1.18,0.97-1.71c0.34-0.53,0.7-1.1,1.08-1.71c0.61-1.06,1.21-2.11,1.82-3.13c0.61-1.03,1.25-2.07,1.94-3.13
				c0.53-0.83,1.06-1.69,1.6-2.56c0.53-0.87,1.03-1.73,1.48-2.56c0.07-0.15,0.15-0.3,0.23-0.46c0.07-0.15,0.11-0.26,0.11-0.34
				c-0.23-0.68-0.1-1.2,0.4-1.54c0.49-0.34,0.85-0.7,1.08-1.08c0.46,0.08,0.78-0.07,0.97-0.46c0.19-0.38,0.4-0.68,0.63-0.91
				c0.23-0.15,0.42-0.36,0.57-0.63c0.15-0.27,0.34-0.55,0.57-0.85c-0.15-0.08-0.38-0.11-0.68-0.11c0.53-0.68,1.03-1.35,1.48-1.99
				c0.46-0.64,0.99-1.23,1.6-1.77V156.24z M364.85,193.17c0-0.15,0.02-0.32,0.06-0.51c0.04-0.19,0.06-0.36,0.06-0.51
				C364.44,192.52,364.4,192.86,364.85,193.17z M365.54,191.23h0.11c0.15-0.3,0.23-0.53,0.23-0.68c0-0.07-0.07-0.11-0.23-0.11
				c0,0.15-0.02,0.28-0.06,0.4C365.56,190.94,365.54,191.08,365.54,191.23z M380.01,209.01l0.23-0.46l-0.8-0.23
				c-0.08,0.08-0.11,0.15-0.11,0.23C379.48,208.7,379.71,208.85,380.01,209.01z M383.66,158.07l0.68-1.25l-0.23-0.46
				c-0.08,0.23-0.21,0.48-0.4,0.74C383.52,157.37,383.5,157.69,383.66,158.07z"/>
			<path d="M462.17,187.01c0.76-0.08,0.99,0.38,0.68,1.37c-0.3,0.99-0.84,2.2-1.6,3.65c-0.15,0.3-0.36,0.67-0.63,1.08
				c-0.27,0.42-0.55,0.85-0.85,1.31c-0.3,0.46-0.55,0.91-0.74,1.37c-0.19,0.46-0.28,0.84-0.28,1.14c-0.08,0.08-0.17,0.17-0.29,0.29
				c-0.11,0.11-0.25,0.21-0.4,0.28c-0.38,0.38-0.68,0.84-0.91,1.37c-0.15,0.3-0.28,0.53-0.4,0.68c-0.11,0.15-0.25,0.34-0.4,0.57
				c-0.84,1.44-1.6,2.64-2.28,3.59c-0.68,0.95-1.67,2.07-2.96,3.36c-0.15,0.15-0.59,0.57-1.31,1.25c-0.72,0.68-1.5,1.42-2.34,2.22
				c-0.84,0.8-1.61,1.54-2.34,2.22c-0.72,0.68-1.12,1.1-1.2,1.25c-0.84,0.68-1.73,1.14-2.68,1.37c-0.95,0.23-1.9,0.36-2.85,0.4
				c-0.95,0.04-1.9,0.02-2.85-0.06c-0.95-0.08-1.84-0.11-2.68-0.11c-1.06,0-1.86-0.15-2.39-0.46c-0.53-0.3-1.24-0.67-2.11-1.08
				c-0.87-0.42-1.5-0.89-1.88-1.42c-0.23-0.61-0.55-1.2-0.97-1.77c-0.42-0.57-0.84-1.14-1.25-1.71c-0.42-0.57-0.78-1.2-1.08-1.88
				c-0.3-0.68-0.49-1.48-0.57-2.39c-0.07-0.46-0.19-0.86-0.34-1.2c-0.15-0.34-0.27-0.74-0.34-1.2c0.08-1.82,0.23-3.65,0.46-5.47
				c0.23-1.82,0.46-3.68,0.68-5.58c0.38-1.29,0.7-2.64,0.97-4.05c0.27-1.4,0.51-2.75,0.74-4.04c0.3-1.21,0.55-2.2,0.74-2.96
				c0.19-0.76,0.42-1.48,0.68-2.17c0.27-0.68,0.57-1.37,0.91-2.05s0.78-1.6,1.31-2.74c0.3-0.76,0.59-1.37,0.85-1.82
				c0.27-0.46,0.53-0.87,0.8-1.25c0.27-0.38,0.53-0.8,0.8-1.25c0.27-0.46,0.55-1.06,0.85-1.82c0.83-1.67,1.71-3.19,2.62-4.56
				c0.38-0.83,0.82-1.67,1.31-2.51c0.49-0.83,1.01-1.67,1.54-2.51c2.13-3.72,4.48-6.99,7.07-9.8c0.83-0.83,1.71-1.69,2.62-2.56
				c0.91-0.87,1.78-1.69,2.62-2.45c0.53-0.38,1.04-0.78,1.54-1.2c0.49-0.42,1.01-0.7,1.54-0.85c0.23-0.15,0.57-0.3,1.03-0.46
				c0.83-0.07,1.6-0.04,2.28,0.11c0.68,0.15,1.33,0.53,1.94,1.14c1.14,0.99,1.52,2.58,1.14,4.79c-0.15,0.68-0.27,1.37-0.34,2.05
				c-0.08,0.68-0.19,1.33-0.34,1.94c-0.08,0.53-0.21,1.03-0.4,1.48c-0.19,0.46-0.44,0.99-0.74,1.6c-0.38,0.99-0.82,1.94-1.31,2.85
				c-0.5,0.91-1.04,1.82-1.65,2.74l-2.51,4.44c-0.68,1.06-1.33,2.11-1.94,3.13c-0.61,1.03-1.25,2.03-1.94,3.02
				c-1.22,1.6-2.36,3.23-3.42,4.9c-1.06,1.67-2.13,3.3-3.19,4.9c-0.91,1.52-1.6,2.77-2.05,3.76c-0.46,0.99-0.8,1.92-1.03,2.79
				c-0.23,0.87-0.44,1.81-0.63,2.79c-0.19,0.99-0.44,2.24-0.74,3.76c-0.23,1.22-0.32,2.24-0.28,3.08c0.04,0.84,0.02,1.86-0.06,3.08
				c0,0.15,0.04,0.51,0.11,1.08c0.08,0.57,0.13,1.18,0.17,1.82c0.04,0.65,0.09,1.24,0.17,1.77c0.07,0.53,0.11,0.84,0.11,0.91
				c0.15,0.84,0.32,1.46,0.51,1.88c0.19,0.42,0.47,1.01,0.85,1.77c0.15,0.23,0.51,0.42,1.08,0.57c0.57,0.15,1.01,0.3,1.31,0.46
				c0.23,0.15,0.7,0.06,1.42-0.28c0.72-0.34,1.52-0.78,2.39-1.31c0.87-0.53,1.67-1.04,2.39-1.54c0.72-0.49,1.2-0.82,1.42-0.97
				c0.91-0.53,1.75-1.18,2.51-1.94c0.76-0.76,1.56-1.56,2.39-2.39c0.83-0.83,1.52-1.71,2.05-2.62c0.53-0.91,1.18-1.9,1.94-2.96
				c1.06-1.37,1.88-2.66,2.45-3.87C460.29,189.9,461.11,188.53,462.17,187.01z M438.7,178.35c0.83-1.29,1.58-2.43,2.22-3.42
				c0.64-0.99,1.35-2.13,2.11-3.42c0.91-1.44,1.65-2.64,2.22-3.59c0.57-0.95,1.12-1.86,1.65-2.74c0.53-0.87,1.06-1.8,1.6-2.79
				c0.53-0.99,1.21-2.28,2.05-3.87c0.61-1.21,1.2-2.41,1.77-3.59c0.57-1.18,1.16-2.37,1.77-3.59c0.53-1.52,0.91-3.23,1.14-5.13
				c0.23-0.68,0.11-0.91-0.34-0.68c-0.38,0.08-0.8,0.27-1.25,0.57c-1.52,0.61-2.81,1.71-3.87,3.3c-0.38,0.46-0.74,0.93-1.08,1.42
				c-0.34,0.5-0.74,0.97-1.2,1.42c-0.53,0.61-0.95,1.24-1.25,1.88c-0.3,0.65-0.57,1.35-0.8,2.11l-1.71,3.65
				c-0.38,1.22-0.84,2.41-1.37,3.59c-0.53,1.18-1.1,2.38-1.71,3.59l-1.25,3.53c-0.38,0.99-0.63,1.65-0.74,1.99s-0.23,0.65-0.34,0.91
				c-0.11,0.27-0.23,0.57-0.34,0.91c-0.11,0.34-0.32,1.01-0.63,1.99c-0.08,0.23-0.11,0.53-0.11,0.91c0,0.38,0.04,0.72,0.11,1.03
				c0.07,0.3,0.23,0.48,0.46,0.51C438.02,178.9,438.32,178.73,438.7,178.35z"/>
			<path d="M464.34,183.71c0-0.15-0.04-0.27-0.11-0.34c-0.61-1.06-1.08-2.2-1.42-3.42c-0.34-1.21-0.59-2.47-0.74-3.76
				c-0.15-0.99-0.11-1.94,0.11-2.85c0.23-0.91,0.61-1.82,1.14-2.74c0.15-0.3,0.42-0.49,0.8-0.57c0.46-0.38,0.97-0.76,1.54-1.14
				c0.57-0.38,1.2-0.76,1.88-1.14c0.99-0.61,2.2-0.8,3.65-0.57c0.23,0,0.53,0.11,0.91,0.34c0.38,0.23,0.78,0.51,1.2,0.86
				c0.42,0.34,0.8,0.67,1.14,0.97c0.34,0.3,0.59,0.5,0.74,0.57c0.38,0.3,0.74,0.61,1.08,0.91c0.34,0.3,0.7,0.57,1.08,0.8
				c0.99,0.84,1.75,1.98,2.28,3.42c0.15,0.46,0.3,0.89,0.46,1.31c0.15,0.42,0.34,0.82,0.57,1.2c0.15,0.53,0.27,1.07,0.34,1.6
				c0.07,0.53,0.19,1.1,0.34,1.71c0.07,0.53,0.11,1.01,0.11,1.42c0,0.42,0.07,0.85,0.23,1.31c0,0.23,0.02,0.51,0.06,0.85
				c0.04,0.34,0.06,0.55,0.06,0.63c-0.08,0.68-0.08,1.35,0,1.99c0.07,0.65,0.04,1.27-0.11,1.88c-0.15,0.38-0.1,0.72,0.17,1.03
				c0.27,0.3,0.63,0.46,1.08,0.46c1.37-0.08,2.58-0.09,3.65-0.06c1.06,0.04,2.07,0.06,3.02,0.06c0.95,0,1.94-0.02,2.96-0.06
				c1.03-0.04,2.22-0.17,3.59-0.4l1.82-0.91l0.8-0.46c0.23,0.3,0.23,0.65,0,1.03c-0.15,0.3-0.08,0.53,0.23,0.68
				c0.3,0.15,0.34,0.34,0.11,0.57c-0.84,0.91-2.05,1.62-3.65,2.11c-1.6,0.5-3.29,0.84-5.07,1.03c-1.79,0.19-3.53,0.3-5.24,0.34
				c-1.71,0.04-3.06,0.06-4.05,0.06h-0.34c-0.46,0-0.68,0.11-0.68,0.34c0,0.08-0.08,0.27-0.23,0.57c-0.15,0.99-0.46,1.94-0.91,2.85
				c-0.46,0.91-0.87,1.86-1.25,2.85c-0.3,0.68-0.65,1.29-1.03,1.82c-0.38,0.53-0.76,1.06-1.14,1.6c-0.23,0.38-0.46,0.74-0.68,1.08
				s-0.53,0.63-0.91,0.86l-0.8,0.57c-0.38,0.15-0.61,0.38-0.68,0.68c-0.99,1.14-2.05,1.86-3.19,2.17c-0.3,0-0.68,0.15-1.14,0.46
				c-0.84,0.23-1.63,0.34-2.39,0.34c-0.76,0-1.52-0.07-2.28-0.23c-1.06-0.15-1.94-0.55-2.62-1.2c-0.68-0.64-1.33-1.46-1.94-2.45
				l-1.03-3.08c-0.15-1.06-0.25-2.11-0.29-3.13c-0.04-1.03,0.02-2.07,0.17-3.13c0.23-2.05,0.87-4.14,1.94-6.27
				c0.53-1.29,1.16-2.47,1.88-3.53c0.72-1.06,1.5-2.13,2.34-3.19C464.03,184.32,464.19,184.09,464.34,183.71z M477.9,181.54
				c0.23-1.06,0.19-1.98-0.11-2.74c-0.23-1.21-0.5-2.43-0.8-3.65c-0.38-1.21-0.91-2.13-1.6-2.74c-0.23-0.23-0.44-0.47-0.63-0.74
				c-0.19-0.27-0.48-0.47-0.85-0.63c-0.38-0.3-0.72-0.57-1.03-0.8c-0.3-0.23-0.65-0.46-1.03-0.68c-0.38-0.3-0.78-0.4-1.2-0.29
				c-0.42,0.11-0.85,0.3-1.31,0.57c-0.46,0.27-0.87,0.57-1.25,0.91c-0.38,0.34-0.68,0.63-0.91,0.85c-0.76,1.07-1.18,2.22-1.25,3.48
				c-0.08,1.25,0.06,2.47,0.4,3.65c0.34,1.18,0.85,2.32,1.54,3.42c0.68,1.1,1.37,2.03,2.05,2.79c0.83,1.6,1.78,2.68,2.85,3.25
				c1.06,0.57,2.03,0.68,2.91,0.34c0.87-0.34,1.54-1.12,1.99-2.34C478.13,185,478.2,183.44,477.9,181.54z M469.81,196.13
				c-0.61,0.91-1.03,1.69-1.25,2.34c-0.23,0.65-0.53,1.5-0.91,2.56c-0.08,0.3-0.11,0.61-0.11,0.91c0,0.3,0,0.61,0,0.91
				c-0.08,0.08-0.04,0.27,0.11,0.57c0.3,0.68,0.72,1.14,1.25,1.37c0.07,0,0.15-0.04,0.23-0.11l0.46-0.34
				c0.99-1.06,1.82-2.22,2.51-3.48s1.33-2.53,1.94-3.82c0.3-0.46,0.53-0.93,0.68-1.42c0.15-0.49,0.3-0.93,0.46-1.31
				c-1.29-0.61-2.32-0.7-3.08-0.29C471.33,194.44,470.57,195.14,469.81,196.13z M481.66,183.59v0.11l-0.11-0.34L481.66,183.59z
				 M481.66,183.71l0.11,0.11C481.7,183.82,481.66,183.78,481.66,183.71z"/>
			<path d="M500.46,216.07c0.53-1.14,1.12-2.17,1.77-3.08c0.65-0.91,1.35-1.78,2.11-2.62c1.06-1.21,2.15-2.37,3.25-3.48
				c1.1-1.1,2.22-2.18,3.36-3.25l5.01-4.44c0.53-0.53,0.91-1.14,1.14-1.82c0.3-0.83,0.59-1.61,0.85-2.34
				c0.27-0.72,0.51-1.5,0.74-2.34c0.38-1.14,0.61-2.28,0.68-3.42c0.07-1.14,0.07-2.24,0-3.3c-0.15-0.84-0.34-1.37-0.57-1.6
				c-0.23-0.23-0.76-0.27-1.6-0.11c-0.84,0.23-1.6,0.76-2.28,1.6l-1.03,1.14c-0.53,0.38-0.84,0.84-0.91,1.37
				c-0.23,0.84-0.57,1.44-1.03,1.82c-0.38,0.38-0.65,0.95-0.8,1.71c-0.15,0.91-0.53,1.52-1.14,1.82c-0.3,0.15-0.53,0.57-0.68,1.25
				c0,0.68-0.27,1.41-0.8,2.17l-0.34,1.03l-0.46,1.25c-0.3,0.99-0.91,1.48-1.82,1.48c-0.3,0-0.57,0.04-0.8,0.11
				c-0.23,0.08-0.5,0.19-0.8,0.34c-0.15,0.15-0.32,0.23-0.51,0.23c-0.19,0-0.36,0.04-0.51,0.11h-0.8c-0.3,0-0.61,0.04-0.91,0.11
				c-0.3,0.08-0.65,0.11-1.03,0.11c-0.3-0.08-0.59-0.17-0.85-0.29c-0.27-0.11-0.55-0.25-0.85-0.4c-1.29-0.3-2.24-1.21-2.85-2.73
				c-0.3-0.99-0.49-1.86-0.57-2.62c-0.07-0.38-0.13-0.8-0.17-1.25c-0.04-0.46-0.06-0.87-0.06-1.25c0-0.38,0.02-0.7,0.06-0.97
				c0.04-0.27,0.1-0.59,0.17-0.97l0.8-4.56c0.15-1.06,0.36-2.09,0.63-3.08c0.27-0.99,0.55-2.01,0.85-3.08
				c0.3-0.53,0.49-1.06,0.57-1.6c0.15-1.06,0.4-2.05,0.74-2.96c0.34-0.91,0.7-1.82,1.08-2.74c0.83-1.82,1.67-3.65,2.51-5.47
				c0.84-1.82,1.71-3.61,2.62-5.36c0.3-0.53,0.59-1.04,0.85-1.54c0.27-0.49,0.59-1.01,0.97-1.54c0.23-0.53,0.49-1.03,0.8-1.48
				c0.3-0.46,0.57-0.95,0.8-1.48c0.23-0.61,0.51-1.21,0.85-1.82c0.34-0.61,0.7-1.21,1.08-1.82c0.15-0.3,0.3-0.57,0.46-0.8
				c0.15-0.23,0.3-0.49,0.46-0.8c1.06-1.44,2.17-2.89,3.31-4.33c1.14-1.44,2.32-2.85,3.53-4.22l1.03-1.25
				c0.38-0.38,0.64-0.57,0.8-0.57c0.15,0,0.42-0.13,0.8-0.4c0.38-0.26,0.64-0.32,0.8-0.17c0.07,0.08,0.3,0.27,0.68,0.57
				c0.38,0.3,0.78,0.63,1.2,0.97c0.42,0.34,0.8,0.65,1.14,0.91c0.34,0.27,0.59,0.4,0.74,0.4c0,0.08,0.11,0.19,0.34,0.34
				c0.23,0.15,0.49,0.34,0.8,0.57l1.14,0.91c0.38,0.61,0.89,1.46,1.54,2.56c0.64,1.1,1.16,1.96,1.54,2.56
				c0.38,0.61,0.47,1.31,0.28,2.11c-0.19,0.8-0.4,1.58-0.63,2.34c-0.08,0.15-0.23,0.11-0.46-0.11c-0.23-0.23-0.46-0.51-0.68-0.85
				s-0.46-0.63-0.68-0.85c-0.23-0.23-0.38-0.3-0.46-0.23c-0.23,0.38-0.38,0.59-0.46,0.63c-0.08,0.04-0.13,0.08-0.17,0.11
				c-0.04,0.04-0.1,0.1-0.17,0.17c-0.08,0.08-0.19,0.3-0.34,0.68c0,0.08-0.13,0.25-0.4,0.51c-0.27,0.27-0.57,0.55-0.91,0.86
				c-0.34,0.3-0.65,0.57-0.91,0.8c-0.27,0.23-0.44,0.38-0.51,0.46c-0.46,0.84-0.91,1.48-1.37,1.94c-0.46,0.46-1.03,0.99-1.71,1.6
				l-1.37,1.71c-0.38,0.38-0.68,0.78-0.91,1.2c-0.23,0.42-0.53,0.82-0.91,1.2c-0.3,0.38-0.57,0.76-0.8,1.14
				c-0.23,0.38-0.46,0.72-0.68,1.03c-0.46,0.61-0.89,1.22-1.31,1.82c-0.42,0.61-0.82,1.25-1.2,1.94c-0.38,0.61-0.89,1.39-1.54,2.34
				c-0.65,0.95-1.08,1.81-1.31,2.56c-0.23,0.76-0.53,1.41-0.91,1.94c-0.15,0.3-0.28,0.61-0.4,0.91c-0.11,0.3-0.25,0.65-0.4,1.03
				l-1.71,4.22c-0.15,0.23-0.28,0.63-0.4,1.2c-0.11,0.57-0.23,1.16-0.34,1.77c-0.11,0.61-0.23,1.18-0.34,1.71
				c-0.11,0.53-0.21,0.87-0.29,1.03c0,0.15-0.1,0.61-0.28,1.37c-0.19,0.76-0.32,1.5-0.4,2.22c-0.08,0.72-0.04,1.27,0.11,1.65
				c0.15,0.38,0.53,0.34,1.14-0.11c0.46-0.61,0.76-1.06,0.91-1.37c0.15-0.3,0.46-0.76,0.91-1.37c0.61-0.91,1.23-1.82,1.88-2.74
				c0.64-0.91,1.31-1.82,1.99-2.73c0.3-0.46,0.64-0.86,1.03-1.2c0.38-0.34,0.76-0.66,1.14-0.97c0.53-0.46,1.14-0.68,1.82-0.68h0.57
				c1.82-0.23,3.38,0.5,4.67,2.17l1.37,1.71c0.61,1.06,0.91,2.28,0.91,3.65s-0.02,2.58-0.06,3.65c-0.04,1.06,0.06,1.84,0.28,2.34
				c0.23,0.5,0.87,0.4,1.94-0.28l9.69-5.93c0.53-0.3,0.87-0.51,1.03-0.63c0.15-0.11,0.29-0.21,0.4-0.29
				c0.11-0.08,0.27-0.17,0.46-0.29c0.19-0.11,0.55-0.32,1.08-0.63c0.07-0.07,0.11,0.02,0.11,0.29c0,0.27,0,0.57,0,0.91
				s0,0.67,0,0.97c0,0.3,0.07,0.46,0.23,0.46l-0.57,0.57c-0.68,0.3-1.03,0.5-1.03,0.57c0,0.08-0.27,0.34-0.8,0.8
				c-0.38,0.3-0.72,0.55-1.03,0.74c-0.3,0.19-0.65,0.44-1.03,0.74c-0.3,0.15-0.8,0.4-1.48,0.74c-0.68,0.34-1.1,0.67-1.25,0.97
				c-0.15,0.23-0.32,0.38-0.51,0.46c-0.19,0.08-0.36,0.19-0.51,0.34c-0.46,0.15-0.87,0.36-1.25,0.63c-0.38,0.27-0.76,0.59-1.14,0.97
				c-0.99,0.68-1.65,1.22-1.99,1.6c-0.34,0.38-0.82,0.8-1.42,1.25c-0.68,0.46-1.16,0.88-1.42,1.25c-0.27,0.38-0.46,0.74-0.57,1.08
				s-0.23,0.74-0.34,1.2s-0.29,0.99-0.51,1.6c-0.15,0.3-0.27,0.59-0.34,0.85c-0.08,0.27-0.19,0.51-0.34,0.74l-0.11,0.23
				c-0.23,0.84-0.46,1.33-0.68,1.48c-0.23,0.15-0.53,0.57-0.91,1.25c-0.53,0.68-1.03,1.37-1.48,2.05c-0.46,0.68-0.99,1.33-1.6,1.94
				l-1.37,1.25c-0.15,0.15-0.29,0.27-0.4,0.34c-0.11,0.08-0.21,0.19-0.29,0.34c-0.61,1.06-1.48,1.86-2.62,2.39
				c-0.61,0.23-1.18,0.57-1.71,1.03c-0.61,0.53-1.22,0.83-1.82,0.91c-0.76,0.23-1.52,0.26-2.28,0.11h-0.23
				c-0.38-0.3-0.78-0.47-1.2-0.51c-0.42-0.04-0.82-0.13-1.2-0.29c0-0.15-0.02-0.28-0.06-0.4c-0.04-0.11-0.06-0.25-0.06-0.4
				c-0.46-0.08-0.82-0.27-1.08-0.57c-0.27-0.3-0.55-0.65-0.85-1.03c-0.3-0.38-0.59-0.74-0.85-1.08
				C500.82,217.04,500.61,216.6,500.46,216.07z M506.39,215.16c0.68-0.38,1.29-0.85,1.82-1.42c0.53-0.57,1.03-1.23,1.48-1.99
				l0.68-1.14c0.3-0.38,0.59-0.7,0.85-0.97c0.27-0.26,0.51-0.59,0.74-0.97c0.61-0.83,1.21-1.78,1.82-2.85
				c0.23-0.38,0.27-0.63,0.11-0.74c-0.15-0.11-0.38-0.11-0.68,0c-0.3,0.11-0.63,0.28-0.97,0.51c-0.34,0.23-0.59,0.46-0.74,0.68
				c-0.53,0.76-1.03,1.31-1.48,1.65c-0.46,0.34-0.95,0.93-1.48,1.77c-0.08,0.15-0.15,0.25-0.23,0.28c-0.08,0.04-0.19,0.13-0.34,0.29
				c-0.61,0.53-1.16,1.08-1.65,1.65c-0.49,0.57-1.04,1.12-1.65,1.65l-0.23,0.23c-0.46,0.38-0.8,0.76-1.03,1.14
				c-0.23,0.38-0.28,0.67-0.17,0.86c0.11,0.19,0.42,0.25,0.91,0.17C504.66,215.88,505.4,215.62,506.39,215.16z"/>
			<path d="M578.29,186.1c0.61,0.08,1.25,0.46,1.94,1.14c-0.08,0.38-0.32,1.08-0.74,2.11c-0.42,1.03-0.78,1.65-1.08,1.88
				c-0.15,0.08-0.27,0.17-0.34,0.29c-0.08,0.11-0.19,0.21-0.34,0.29l-1.25,1.48c-0.15,0.15-0.29,0.29-0.4,0.4
				c-0.11,0.11-0.21,0.25-0.29,0.4c-0.23,0.53-0.68,0.99-1.37,1.37c-0.3,0.15-0.5,0.3-0.57,0.46c-0.38,0.38-0.76,0.74-1.14,1.08
				c-0.38,0.34-0.76,0.7-1.14,1.08c-0.61,0.53-1.33,0.91-2.17,1.14c-0.53,0.15-1.03,0.25-1.48,0.29c-0.46,0.04-0.91,0.13-1.37,0.28
				c-0.38,0.15-0.8,0.25-1.25,0.29c-0.46,0.04-0.91,0.13-1.37,0.29h-1.03c-0.68-0.23-1.35-0.44-1.99-0.63
				c-0.65-0.19-1.27-0.51-1.88-0.97l-0.57-0.34c-0.53-0.23-1.03-0.49-1.48-0.8c-0.46-0.3-0.87-0.68-1.25-1.14
				c-1.06,0.53-1.86,1.03-2.39,1.48l-1.25,0.8l-0.23,0.11c-0.38,0.46-0.78,0.76-1.2,0.91c-0.42,0.15-0.85,0.3-1.31,0.46
				c-1.75,0.53-3.3,0.42-4.67-0.34c-0.3-0.15-0.59-0.29-0.85-0.4c-0.27-0.11-0.55-0.25-0.85-0.4c-3.27-1.37-5.09-3.83-5.47-7.41
				c-0.23-1.75,0.07-3.46,0.91-5.13c0.38-0.76,0.78-1.5,1.2-2.22c0.42-0.72,0.93-1.38,1.54-1.99c0-0.07,0.07-0.19,0.23-0.34
				c0.76-1.14,1.58-2.24,2.45-3.3c0.87-1.06,1.73-2.13,2.56-3.19c1.29-1.37,2.73-2.54,4.33-3.53c0.3-0.15,0.64-0.23,1.03-0.23
				c0.38-0.08,0.74-0.13,1.08-0.17c0.34-0.04,0.7-0.06,1.08-0.06h0.34c0.38,0.15,0.78,0.25,1.2,0.28c0.42,0.04,0.82,0.13,1.2,0.29
				c0.3,0.15,0.53,0.23,0.68,0.23c0.3,0.08,0.55,0.13,0.74,0.17c0.19,0.04,0.36,0.17,0.51,0.4l0.23,0.11c0.3,0,0.57,0.1,0.8,0.28
				c0.23,0.19,0.49,0.29,0.8,0.29c0.23,0,0.42,0.08,0.57,0.23c0.38,0.38,0.74,0.72,1.08,1.03c0.34,0.3,0.63,0.65,0.85,1.03
				l0.34,0.91c0.23,0.99-0.11,1.75-1.03,2.28c-0.53,0.23-1.03,0.5-1.48,0.8c-0.46,0.3-0.91,0.65-1.37,1.03v0.11
				c-0.61,0.61-1.25,1.22-1.94,1.82c-0.68,0.61-1.29,1.29-1.82,2.05l-1.37,1.48c-0.53,0.61-1.01,1.22-1.42,1.82
				c-0.42,0.61-0.85,1.22-1.31,1.82l-1.14,1.59c-0.15,0.15-0.3,0.38-0.46,0.68c-0.68,1.29-1.14,2.55-1.37,3.76v0.46l0.46-0.34
				c1.29-1.29,2.54-2.39,3.76-3.3c0.76-0.61,1.33-1.25,1.71-1.94l0.91-1.03c0.38-0.38,0.72-0.78,1.03-1.2
				c0.3-0.42,0.61-0.85,0.91-1.31l2.39-3.88c1.14-0.15,1.97,0.11,2.51,0.8l0.68,0.68c0.38,0.53,0.63,1.07,0.74,1.6
				c0.11,0.53,0.21,1.1,0.28,1.71c0,0.08-0.08,0.27-0.23,0.57l-1.6,3.19c-0.38,0.84-0.5,1.63-0.34,2.39
				c0.23,1.06,0.57,2.01,1.03,2.85c0.23,0.38,0.57,0.57,1.03,0.57c0.38-0.08,0.78-0.15,1.2-0.23c0.42-0.07,0.82-0.19,1.2-0.34
				c0.38-0.15,0.74-0.32,1.08-0.51c0.34-0.19,0.7-0.4,1.08-0.63l2.51-1.48l1.82-1.6c0.76-0.76,1.63-1.88,2.62-3.36
				c0.99-1.48,1.86-2.6,2.62-3.36L578.29,186.1z"/>
			<path d="M615.21,187.01c0.76-0.08,0.99,0.38,0.68,1.37c-0.3,0.99-0.84,2.2-1.6,3.65c-0.15,0.3-0.36,0.67-0.63,1.08
				c-0.27,0.42-0.55,0.85-0.85,1.31c-0.3,0.46-0.55,0.91-0.74,1.37c-0.19,0.46-0.28,0.84-0.28,1.14c-0.08,0.08-0.17,0.17-0.29,0.29
				c-0.11,0.11-0.25,0.21-0.4,0.28c-0.38,0.38-0.68,0.84-0.91,1.37c-0.15,0.3-0.28,0.53-0.4,0.68c-0.11,0.15-0.25,0.34-0.4,0.57
				c-0.84,1.44-1.6,2.64-2.28,3.59c-0.68,0.95-1.67,2.07-2.96,3.36c-0.15,0.15-0.59,0.57-1.31,1.25c-0.72,0.68-1.5,1.42-2.34,2.22
				c-0.84,0.8-1.61,1.54-2.34,2.22c-0.72,0.68-1.12,1.1-1.2,1.25c-0.84,0.68-1.73,1.14-2.68,1.37c-0.95,0.23-1.9,0.36-2.85,0.4
				c-0.95,0.04-1.9,0.02-2.85-0.06c-0.95-0.08-1.84-0.11-2.68-0.11c-1.06,0-1.86-0.15-2.39-0.46c-0.53-0.3-1.24-0.67-2.11-1.08
				c-0.87-0.42-1.5-0.89-1.88-1.42c-0.23-0.61-0.55-1.2-0.97-1.77c-0.42-0.57-0.84-1.14-1.25-1.71c-0.42-0.57-0.78-1.2-1.08-1.88
				c-0.3-0.68-0.49-1.48-0.57-2.39c-0.07-0.46-0.19-0.86-0.34-1.2c-0.15-0.34-0.27-0.74-0.34-1.2c0.08-1.82,0.23-3.65,0.46-5.47
				c0.23-1.82,0.46-3.68,0.68-5.58c0.38-1.29,0.7-2.64,0.97-4.05c0.27-1.4,0.51-2.75,0.74-4.04c0.3-1.21,0.55-2.2,0.74-2.96
				c0.19-0.76,0.42-1.48,0.68-2.17c0.27-0.68,0.57-1.37,0.91-2.05s0.78-1.6,1.31-2.74c0.3-0.76,0.59-1.37,0.85-1.82
				c0.27-0.46,0.53-0.87,0.8-1.25c0.27-0.38,0.53-0.8,0.8-1.25c0.27-0.46,0.55-1.06,0.85-1.82c0.83-1.67,1.71-3.19,2.62-4.56
				c0.38-0.83,0.82-1.67,1.31-2.51c0.49-0.83,1.01-1.67,1.54-2.51c2.13-3.72,4.48-6.99,7.07-9.8c0.83-0.83,1.71-1.69,2.62-2.56
				c0.91-0.87,1.78-1.69,2.62-2.45c0.53-0.38,1.04-0.78,1.54-1.2c0.49-0.42,1.01-0.7,1.54-0.85c0.23-0.15,0.57-0.3,1.03-0.46
				c0.83-0.07,1.6-0.04,2.28,0.11c0.68,0.15,1.33,0.53,1.94,1.14c1.14,0.99,1.52,2.58,1.14,4.79c-0.15,0.68-0.27,1.37-0.34,2.05
				c-0.08,0.68-0.19,1.33-0.34,1.94c-0.08,0.53-0.21,1.03-0.4,1.48c-0.19,0.46-0.44,0.99-0.74,1.6c-0.38,0.99-0.82,1.94-1.31,2.85
				c-0.5,0.91-1.04,1.82-1.65,2.74l-2.51,4.44c-0.68,1.06-1.33,2.11-1.94,3.13c-0.61,1.03-1.25,2.03-1.94,3.02
				c-1.22,1.6-2.36,3.23-3.42,4.9c-1.06,1.67-2.13,3.3-3.19,4.9c-0.91,1.52-1.6,2.77-2.05,3.76c-0.46,0.99-0.8,1.92-1.03,2.79
				c-0.23,0.87-0.44,1.81-0.63,2.79c-0.19,0.99-0.44,2.24-0.74,3.76c-0.23,1.22-0.32,2.24-0.28,3.08c0.04,0.84,0.02,1.86-0.06,3.08
				c0,0.15,0.04,0.51,0.11,1.08c0.08,0.57,0.13,1.18,0.17,1.82c0.04,0.65,0.09,1.24,0.17,1.77c0.07,0.53,0.11,0.84,0.11,0.91
				c0.15,0.84,0.32,1.46,0.51,1.88c0.19,0.42,0.47,1.01,0.85,1.77c0.15,0.23,0.51,0.42,1.08,0.57c0.57,0.15,1.01,0.3,1.31,0.46
				c0.23,0.15,0.7,0.06,1.42-0.28c0.72-0.34,1.52-0.78,2.39-1.31c0.87-0.53,1.67-1.04,2.39-1.54c0.72-0.49,1.2-0.82,1.42-0.97
				c0.91-0.53,1.75-1.18,2.51-1.94c0.76-0.76,1.56-1.56,2.39-2.39c0.83-0.83,1.52-1.71,2.05-2.62c0.53-0.91,1.18-1.9,1.94-2.96
				c1.06-1.37,1.88-2.66,2.45-3.87C613.33,189.9,614.15,188.53,615.21,187.01z M591.74,178.35c0.83-1.29,1.58-2.43,2.22-3.42
				c0.64-0.99,1.35-2.13,2.11-3.42c0.91-1.44,1.65-2.64,2.22-3.59c0.57-0.95,1.12-1.86,1.65-2.74c0.53-0.87,1.06-1.8,1.6-2.79
				c0.53-0.99,1.21-2.28,2.05-3.87c0.61-1.21,1.2-2.41,1.77-3.59c0.57-1.18,1.16-2.37,1.77-3.59c0.53-1.52,0.91-3.23,1.14-5.13
				c0.23-0.68,0.11-0.91-0.34-0.68c-0.38,0.08-0.8,0.27-1.25,0.57c-1.52,0.61-2.81,1.71-3.87,3.3c-0.38,0.46-0.74,0.93-1.08,1.42
				c-0.34,0.5-0.74,0.97-1.2,1.42c-0.53,0.61-0.95,1.24-1.25,1.88c-0.3,0.65-0.57,1.35-0.8,2.11l-1.71,3.65
				c-0.38,1.22-0.84,2.41-1.37,3.59c-0.53,1.18-1.1,2.38-1.71,3.59l-1.25,3.53c-0.38,0.99-0.63,1.65-0.74,1.99s-0.23,0.65-0.34,0.91
				c-0.11,0.27-0.23,0.57-0.34,0.91c-0.11,0.34-0.32,1.01-0.63,1.99c-0.08,0.23-0.11,0.53-0.11,0.91c0,0.38,0.04,0.72,0.11,1.03
				c0.07,0.3,0.23,0.48,0.46,0.51C591.06,178.9,591.36,178.73,591.74,178.35z"/>
		</g>
		<path d="M108.32,173.62c-0.31-0.08-0.58-0.15-0.81-0.23c-0.23-0.08-0.46-0.12-0.7-0.12c0.23-0.39,0.48-0.62,0.75-0.7
			c0.27-0.08,0.52-0.15,0.75-0.23c0.23-0.08,0.5-0.17,0.81-0.29c0.31-0.12,0.66-0.25,1.04-0.41l-2.2-0.23
			c0.23-0.62,0.56-0.97,0.99-1.04c0.42-0.08,0.83-0.19,1.22-0.35l-1.97-1.28c0.62-0.08,1.22-0.04,1.8,0.12
			c0.58,0.16,1.29-0.08,2.15-0.7c-0.77,0-1.41-0.08-1.91-0.23c-0.5-0.15-0.56-0.7-0.17-1.62c0.23,0,0.5-0.08,0.81-0.23
			c-0.23-0.77-0.64-1.41-1.22-1.91c-0.58-0.5-1.26-0.91-2.03-1.22c0.15,0.23,0.35,0.46,0.58,0.7c0.23,0.23,0.42,0.46,0.58,0.7
			l-0.23,0.23h-0.81c-0.16,0.46-0.29,0.87-0.41,1.22c-0.12,0.35-0.14,0.68-0.06,0.99c0.15,0.31,0.31,0.58,0.46,0.81
			c0.15,0.23,0.31,0.5,0.46,0.81c-0.54,0-1.03,0-1.45,0c-0.43,0-0.87,0.04-1.33,0.12c-0.39,0.16-0.85,0.25-1.39,0.29
			c-0.54,0.04-0.97,0.02-1.28-0.06c-0.7-0.15-1.39-0.17-2.09-0.06c-0.7,0.12-1.39,0.21-2.09,0.29c-0.39,0.23-0.81,0.35-1.28,0.35
			c-0.39,0-0.77-0.02-1.16-0.06c-0.39-0.04-0.74-0.06-1.04-0.06c0.39-1.55,1.12-2.63,2.2-3.25c0.46-0.23,0.91-0.42,1.33-0.58
			c0.42-0.15,0.95-0.31,1.57-0.46c1-0.23,2.09-0.48,3.25-0.75c1.16-0.27,2.28-0.48,3.36-0.64c-0.16-0.39-0.37-0.58-0.64-0.58
			c-0.27,0-0.56,0.04-0.87,0.12c-0.77,0.16-1.66,0.35-2.67,0.58c-1.01,0.23-1.91,0.33-2.73,0.29c-0.81-0.04-1.41-0.31-1.8-0.81
			c-0.39-0.5-0.35-1.41,0.12-2.73c0.77-2.24,1.58-4.47,2.44-6.67c0.85-2.2,1.86-4.43,3.02-6.67c0.46-0.62,0.77-1.28,0.93-1.97
			c0.15-0.7,0.39-1.39,0.7-2.09c0.39-2.01-0.35-3.52-2.2-4.52c-1.93-1.08-4.1-1.62-6.5-1.62h-4.76c-0.62,1.08-1.22,2.15-1.8,3.19
			c-0.58,1.04-1.18,2.11-1.8,3.19c-0.16,0.46-0.35,0.97-0.58,1.51c-0.23,0.54-0.35,1.01-0.35,1.39c-0.08,1.01-0.39,2.01-0.93,3.02
			c-0.39,0.7-0.77,1.37-1.16,2.03c-0.39,0.66-0.58,1.38-0.58,2.15c0,0.46-0.12,0.97-0.35,1.51c-0.23,0.54-0.43,1.04-0.58,1.51
			c-0.7,1.78-1.3,3.27-1.8,4.47c-0.5,1.2-1.03,2.65-1.57,4.35c-0.08,0.23-0.17,0.43-0.29,0.58c-0.12,0.16-0.25,0.39-0.41,0.7
			c-2.17,0.85-4.18,1.47-6.03,1.86c-1.86,0.39-3.31,0.39-4.35,0s-1.53-1.28-1.45-2.67c0.08-1.39,0.97-3.44,2.67-6.15l2.09-5.22
			c0.23-0.85,0.54-1.68,0.93-2.49c0.39-0.81,0.77-1.68,1.16-2.61c0.39-1.08,0.08-1.78-0.93-2.09l-2.55-0.35
			c-0.85-0.15-1.47,0.16-1.86,0.93c-0.85,1.62-1.74,3.25-2.67,4.87c-0.93,1.62-1.74,3.21-2.44,4.76c-0.54,1.24-1.04,2.34-1.51,3.31
			c-0.46,0.97-0.91,1.93-1.33,2.9c-0.43,0.97-0.83,1.93-1.22,2.9c-0.39,0.97-0.74,2.07-1.04,3.3c-0.16,0.7-0.54,1.47-1.16,2.32
			c-0.62,0.85-1.32,1.35-2.09,1.51c-1.16,0.16-2.19,0.37-3.07,0.64c-0.89,0.27-1.76,0.21-2.61-0.17l-2.32,4.87
			c0.31,0.31,0.35,0.97,0.12,1.97c-0.16,0.62-0.27,1.26-0.35,1.91c-0.08,0.66-0.19,1.33-0.35,2.03c-0.16,0.39-0.19,0.75-0.12,1.1
			c0.08,0.35,0.15,0.72,0.23,1.1c0.08,1.08,0.41,1.78,0.99,2.09c0.58,0.31,1.12,0.54,1.62,0.7c0.5,0.16,0.89,0.45,1.16,0.87
			c0.27,0.43,0.13,1.3-0.41,2.61c-0.85,2.71-1.62,5.43-2.32,8.18c-0.7,2.75-1.32,5.47-1.86,8.18c-0.23,1.16-0.27,2.36-0.12,3.6
			c0.08,0.39,0.29,0.74,0.64,1.04c0.35,0.31,0.83,0.39,1.45,0.23c0.15-0.16,0.35-0.19,0.58-0.12c0.23,0.08,0.46,0.12,0.7,0.12
			c0.7,0,1.24,0,1.62,0c0.39,0,0.71-0.08,0.99-0.23c0.27-0.15,0.56-0.41,0.87-0.75c0.31-0.35,0.73-0.87,1.28-1.57
			c0.15-0.23,0.27-0.39,0.35-0.46c1.16-2.01,1.93-3.96,2.32-5.86c0.39-1.89,0.93-3.81,1.62-5.74c0.15-0.31,0.21-0.58,0.17-0.81
			c-0.04-0.23-0.02-0.46,0.06-0.7c0.15-0.62,0.27-1.18,0.35-1.68c0.08-0.5,0.15-1.06,0.23-1.68c0.54-2.01,0.99-3.56,1.33-4.64
			c0.35-1.08,0.81-1.97,1.39-2.67c0.58-0.7,1.43-1.31,2.55-1.86c1.12-0.54,2.73-1.31,4.81-2.32c0.77-0.15,1.35-0.39,1.74-0.7
			c1.39-0.39,2.32-0.33,2.78,0.17c0.46,0.5,0.66,1.28,0.58,2.32c-0.08,1.04-0.35,2.26-0.81,3.65s-0.93,2.78-1.39,4.18
			s-0.85,2.73-1.16,4c-0.31,1.28-0.39,2.26-0.23,2.96c-0.39,1.24-0.68,2.48-0.87,3.71c-0.19,1.24-0.48,2.51-0.87,3.83
			c-0.16,0.31-0.25,0.6-0.29,0.87c-0.04,0.27-0.14,0.56-0.29,0.87c-0.62,0.85-0.77,1.47-0.46,1.86c0.08,0.16,0,0.43-0.23,0.81
			c0,0.23-0.06,0.46-0.17,0.7c-0.12,0.23-0.17,0.43-0.17,0.58c0.31,1.47,0.19,2.94-0.35,4.41v1.28c-0.08,0.54-0.1,1.08-0.06,1.62
			c0.04,0.54,0.02,1.08-0.06,1.62c-0.08,0.15-0.17,0.31-0.29,0.46c-0.12,0.15-0.25,0.35-0.41,0.58c0.15,0.15,0.33,0.35,0.52,0.58
			c0.19,0.23,0.33,0.42,0.41,0.58c0.23,0.54,0.44,0.85,0.64,0.93c0.19,0.08,0.68-0.08,1.45-0.46l0.93-0.93
			c0.23,0.08,0.42,0.15,0.58,0.23c0.15,0.08,0.35,0.12,0.58,0.12l0.7-0.7c0.23-0.16,0.35-0.12,0.35,0.12s0.15,0.27,0.46,0.12
			c0.77-0.7,1.57-1.1,2.38-1.22c0.81-0.12,1.6-0.52,2.38-1.22c0.15-0.08,0.46-0.12,0.93-0.12c0.46-0.16,0.97-0.23,1.51-0.23
			c0.39-0.39,0.77-0.75,1.16-1.1c0.39-0.35,0.62-0.72,0.7-1.1c0.31-0.77,0.62-1.53,0.93-2.26c0.31-0.74,0.39-1.53,0.23-2.38
			c0-0.15,0.02-0.31,0.06-0.46c0.04-0.15,0.06-0.31,0.06-0.46c0.23-0.85,0.48-1.74,0.75-2.67c0.27-0.93,0.21-1.82-0.17-2.67
			c-0.08-0.08-0.08-0.17,0-0.29c0.08-0.12,0.12-0.25,0.12-0.41c0.15-0.15,0.29-0.29,0.41-0.41S85,206.6,85,206.44
			c0.39-1.16,0.7-2.32,0.93-3.48c0.23-1.16,0.46-2.32,0.7-3.48c0.39-1.24,0.66-2.47,0.81-3.71c0.15-1.24,0.42-2.51,0.81-3.83
			c0.31-0.77,0.54-1.53,0.7-2.26c0.15-0.73,0.31-1.49,0.46-2.26c0.15-1.08,0.35-2.12,0.58-3.13c0.23-1,0.58-2.05,1.04-3.13
			c0.46-1.47,1.47-2.44,3.02-2.9c1-0.38,2.01-0.71,3.02-0.99c1-0.27,1.97-0.56,2.9-0.87c1.39-0.62,2.78-1.14,4.18-1.57
			C105.53,174.41,106.93,174,108.32,173.62z M55.89,179.07c-1.08,0.31-2.28,0.58-3.6,0.81c0.46-0.62,0.95-0.99,1.45-1.1
			c0.5-0.12,1.02-0.29,1.57-0.52c-0.16-0.31-0.27-0.54-0.35-0.7c-0.08-0.15-0.31-0.27-0.7-0.35c-0.39,0-0.74-0.04-1.04-0.12
			c-0.31-0.08-0.62-0.12-0.93-0.12c0.31-0.77,0.6-1.31,0.87-1.62c0.27-0.31,0.75-0.54,1.45-0.7c0.62-0.08,1.16-0.15,1.62-0.23
			c0.46-0.08,1-0.19,1.62-0.35L55.89,179.07z M74.27,169.79c0.35-0.08,0.71-0.15,1.1-0.23c0,0.08-0.04,0.16-0.12,0.23
			c-0.08,0.08-0.12,0.16-0.12,0.23c-0.39,0-0.72,0-0.99,0c-0.27,0-0.6,0.04-0.99,0.12C73.56,169.98,73.92,169.87,74.27,169.79z
			 M68.3,171.41c0.7-0.23,1.41-0.42,2.15-0.58c0.73-0.15,1.45-0.35,2.15-0.58l-4.87,2.21h-0.7
			C67.02,171.92,67.44,171.57,68.3,171.41z M67.72,174.43c0.7-0.31,1.39-0.54,2.09-0.7C69.26,174.51,68.57,174.74,67.72,174.43z
			 M75.89,175.59c-0.43-0.08-0.95-0.04-1.57,0.12c0.7-0.62,1.26-0.89,1.68-0.81c0.42,0.08,0.83,0.16,1.22,0.23
			C76.77,175.51,76.32,175.67,75.89,175.59z M68.64,175.36c0.62-0.54,1.35-0.81,2.2-0.81c0.77,0,1.62-0.19,2.55-0.58
			c0.77-0.23,1.47-0.42,2.09-0.58c0.62-0.15,1.24-0.19,1.86-0.12l0.58,0.58C74.6,174.78,71.51,175.28,68.64,175.36z"/>
		<polygon points="110.98,165.96 110.87,166.08 110.98,166.19 		"/>
		<path d="M342.51,187.25c-0.54,0.78-1.1,1.49-1.68,2.15c-0.58,0.66-1.18,1.3-1.8,1.91l-2.09,2.32l-0.35,0.35
			c-1.01,0.85-1.97,1.68-2.9,2.49s-1.9,1.61-2.9,2.38c-2.71,2.09-5.38,3.52-8,4.29c-0.16,0-0.45,0.04-0.87,0.12
			c-0.43,0.08-0.89,0.16-1.39,0.23c-0.5,0.08-0.97,0.14-1.39,0.17c-0.43,0.04-0.72,0.06-0.87,0.06c-0.93-0.08-1.86-0.52-2.78-1.33
			c-0.93-0.81-1.82-1.64-2.67-2.49c-0.16-0.23-0.43-0.81-0.81-1.74c-0.39-0.93-0.66-1.51-0.81-1.74c-0.31-0.77-0.46-1.47-0.46-2.09
			c0-0.39,0-0.77,0-1.16c0-0.38-0.04-0.77-0.12-1.16l-0.46-0.23l0.35-2.44h0.23c0,0.39-0.04,0.7-0.12,0.93h0.81v-0.12
			c-0.08-0.08-0.23-0.12-0.46-0.12c0.08-0.54,0.19-0.85,0.35-0.93c0.31-0.08,0.5-0.31,0.58-0.7c0-0.15,0.12-0.35,0.35-0.58
			c0.31-0.15,0.46-0.35,0.46-0.58c0-0.38,0.08-0.7,0.23-0.93c0.15-0.23,0.27-0.5,0.35-0.81c0.39-0.39,0.66-0.35,0.81,0.12
			c0.31,0.46,0.58,0.95,0.81,1.45c0.23,0.5,0.46,0.99,0.7,1.45c0.08,0.16,0.15,0.31,0.23,0.46c0.08,0.16,0.04,0.35-0.12,0.58
			c0,0.23,0.08,0.43,0.23,0.58c0.39,0.16,0.73,0.43,1.04,0.81c0.31,0.39,0.7,0.54,1.16,0.46l0.12,0.12
			c0.15,0.23,0.31,0.35,0.46,0.35c0.15,0,0.31,0.04,0.46,0.12c0.77,0.16,1.51,0.04,2.2-0.35c0.93-0.23,1.62-0.81,2.09-1.74
			c0.23-0.39,0.44-0.77,0.64-1.16c0.19-0.39,0.37-0.77,0.52-1.16c0.15-0.46,0.35-0.89,0.58-1.28c0.23-0.39,0.46-0.77,0.7-1.16
			c0.39-0.7,0.73-1.41,1.04-2.15c0.31-0.73,0.54-1.53,0.7-2.38c0.15-0.77,0.23-1.49,0.23-2.15c0-0.66-0.08-1.33-0.23-2.03
			c-0.08-0.15-0.14-0.33-0.17-0.52c-0.04-0.19-0.14-0.37-0.29-0.52c-0.39-0.39-0.72-0.83-0.99-1.33c-0.27-0.5-0.56-1.02-0.87-1.57
			c-0.31-0.62-0.58-1-0.81-1.16c-0.23-0.15-0.66-0.35-1.28-0.58c-0.62-0.23-1.28-0.46-1.97-0.7c-0.7-0.23-1.35-0.44-1.97-0.64
			c-0.62-0.19-1.08-0.37-1.39-0.52c-0.16-0.15-0.27-0.31-0.35-0.46c-0.08-0.15-0.19-0.31-0.35-0.46c-0.16-0.15-0.33-0.23-0.52-0.23
			c-0.19,0-0.37-0.08-0.52-0.23c-0.23-0.46-0.74-0.54-1.51-0.23l-1.16,0.58c-1.78,1.08-3.52,2.55-5.22,4.41
			c-1.62,1.62-3.06,3.4-4.29,5.34c-1.16,1.7-2.24,3.67-3.25,5.92c-0.15,0.39-0.33,0.77-0.52,1.16c-0.19,0.39-0.29,0.85-0.29,1.39
			c0.62-1.16,1.08-2.16,1.39-3.02c0.16-0.39,0.31-0.66,0.46-0.81c0.15-0.15,0.39-0.31,0.7-0.46c0.08,0.54,0.1,0.87,0.06,0.99
			c-0.04,0.12-0.14,0.37-0.29,0.75c-0.77,1.62-1.37,3.31-1.8,5.05c-0.33,1.36-0.53,2.73-0.6,4.11c-0.51,0.9-1.14,1.82-1.89,2.79
			c-0.77,1.08-1.43,2.09-1.97,3.02c-0.54,0.93-1.24,1.82-2.09,2.67c-0.85,0.85-1.66,1.66-2.44,2.44c-0.77,0.77-1.62,1.43-2.55,1.97
			c-0.23,0.16-0.72,0.48-1.45,0.99c-0.74,0.5-1.55,1.03-2.44,1.57c-0.89,0.54-1.7,0.99-2.44,1.33c-0.74,0.35-1.22,0.45-1.45,0.29
			c-0.31-0.15-0.75-0.31-1.33-0.46c-0.58-0.15-0.95-0.35-1.1-0.58c-0.39-0.77-0.68-1.37-0.87-1.8c-0.19-0.42-0.37-1.06-0.52-1.91
			c0-0.08-0.04-0.38-0.12-0.93c-0.08-0.54-0.14-1.14-0.17-1.8c-0.04-0.66-0.1-1.28-0.17-1.86c-0.08-0.58-0.12-0.95-0.12-1.1
			c0.08-1.24,0.1-2.28,0.06-3.13c-0.04-0.85,0.06-1.89,0.29-3.13c0.31-1.55,0.56-2.82,0.75-3.83c0.19-1,0.41-1.95,0.64-2.84
			c0.23-0.89,0.58-1.84,1.04-2.84c0.46-1,1.16-2.28,2.09-3.83c1.08-1.62,2.16-3.29,3.25-4.99c1.08-1.7,2.24-3.36,3.48-4.99
			c0.7-1,1.35-2.03,1.97-3.07c0.62-1.04,1.28-2.11,1.97-3.19l2.55-4.52c0.62-0.93,1.18-1.86,1.68-2.79c0.5-0.93,0.95-1.89,1.33-2.9
			c0.31-0.62,0.56-1.16,0.75-1.62c0.19-0.46,0.33-0.97,0.41-1.51c0.15-0.62,0.27-1.28,0.35-1.97c0.08-0.7,0.19-1.39,0.35-2.09
			c0.39-2.24,0-3.87-1.16-4.87c-0.62-0.62-1.28-1-1.97-1.16c-0.7-0.15-1.47-0.19-2.32-0.12c-0.46,0.16-0.81,0.31-1.04,0.46
			c-0.54,0.16-1.06,0.45-1.57,0.87c-0.5,0.43-1.03,0.83-1.57,1.22c-0.85,0.77-1.74,1.61-2.67,2.49c-0.93,0.89-1.82,1.76-2.67,2.61
			c-2.63,2.86-5.03,6.19-7.19,9.98c-0.54,0.85-1.06,1.7-1.57,2.55c-0.5,0.85-0.95,1.7-1.33,2.55c-0.93,1.39-1.82,2.94-2.67,4.64
			c-0.31,0.77-0.6,1.39-0.87,1.86c-0.27,0.46-0.54,0.89-0.81,1.28c-0.27,0.39-0.54,0.81-0.81,1.28c-0.27,0.46-0.56,1.08-0.87,1.86
			c-0.54,1.16-0.99,2.09-1.33,2.78c-0.35,0.7-0.66,1.39-0.93,2.09c-0.27,0.7-0.5,1.43-0.7,2.2c-0.19,0.77-0.45,1.78-0.75,3.02
			c-0.16,0.91-0.33,1.86-0.51,2.82c-0.14,0.27-0.3,0.61-0.47,1.06c-0.19,0.5-0.45,1.06-0.75,1.68c-1.16,2.01-2.26,4-3.31,5.97
			c-1.04,1.97-2.26,3.93-3.65,5.86c-1.08,2.01-1.72,3.52-1.91,4.52c-0.19,1.01-0.6,1.93-1.22,2.79c-0.54,0.7-1.04,1.55-1.51,2.55
			c-0.31,0.46-0.46,0.75-0.46,0.87c0,0.12,0.02,0.19,0.06,0.23c0.04,0.04,0.04,0.1,0,0.17c-0.04,0.08-0.21,0.35-0.52,0.81
			c-0.16,0.16-0.29,0.29-0.41,0.41c-0.12,0.12-0.25,0.25-0.41,0.41c-0.62,0.23-1.08,0.48-1.39,0.75c-0.31,0.27-1.04,0.48-2.2,0.64
			h0.12c-0.16,0.15-0.23,0.35-0.23,0.58c-0.39-0.08-0.7-0.21-0.93-0.41c-0.23-0.19-0.5-0.37-0.81-0.52
			c-0.16-0.23-0.43-0.5-0.81-0.81c0.31-0.23,0.46-0.23,0.46,0c0.15,0.15,0.23,0.29,0.23,0.41c0,0.12,0.04,0.25,0.12,0.41
			c0.15-0.16,0.31-0.23,0.46-0.23c0.15,0,0.31-0.04,0.46-0.12c-0.62-0.62-1.22-1.2-1.8-1.74c-0.58-0.54-1.06-1.24-1.45-2.09
			c-0.46-0.46-0.66-0.97-0.58-1.51c0.08-0.23-0.04-0.58-0.35-1.04c-0.16-0.54-0.39-0.93-0.7-1.16c-0.23-0.77-0.45-1.53-0.64-2.26
			c-0.19-0.73-0.33-1.53-0.41-2.38c-0.08-0.38-0.1-0.73-0.06-1.04c0.04-0.31-0.02-0.66-0.17-1.04c-0.08-0.08-0.12-0.23-0.12-0.46
			v-3.02c0.08-0.39,0.13-0.77,0.17-1.16c0.04-0.39-0.02-0.77-0.17-1.16c-0.08-0.31-0.1-0.6-0.06-0.87c0.04-0.27,0.06-0.56,0.06-0.87
			c0.31-0.31,0.39-0.58,0.23-0.81c0-0.39,0.04-0.75,0.12-1.1c0.08-0.35,0.08-0.71,0-1.1c0.39-1.08,0.62-2.01,0.7-2.78
			c0.08-0.46,0.15-0.95,0.23-1.45c0.08-0.5,0.19-0.99,0.35-1.45c0.15-0.62,0.39-1.04,0.7-1.28c0.31-0.62,0.42-1.06,0.35-1.33
			c-0.08-0.27,0.12-0.71,0.58-1.33c0.54-0.62,1.06-1.28,1.57-1.97c0.5-0.7,0.87-1.47,1.1-2.32c0.15-0.39,0.37-0.71,0.64-0.99
			c0.27-0.27,0.56-0.56,0.87-0.87c0.85-0.54,1.43-1.24,1.74-2.09c0.39-1.24,1-2.28,1.86-3.13c0.54-0.77,1-1.74,1.39-2.9
			c0.08-0.39,0.15-0.71,0.23-0.99c0.08-0.27,0.19-0.6,0.35-0.99c0.23-0.46,0.44-0.93,0.64-1.39c0.19-0.46,0.37-0.93,0.52-1.39
			c0.54-1.16,1.04-2.09,1.51-2.79c0.31-0.54,0.54-1.2,0.7-1.97c0.08-0.15,0.1-0.27,0.06-0.35c-0.04-0.08-0.02-0.19,0.06-0.35
			c0.31-0.46,0.48-0.95,0.52-1.45c0.04-0.5,0.06-0.99,0.06-1.45l0.35-2.55c0.15-0.62,0.19-1.26,0.12-1.91
			c-0.08-0.66-0.16-1.29-0.23-1.91c-0.16-0.46-0.31-0.77-0.46-0.93c-0.62-0.39-1.12-0.77-1.51-1.16c-0.39-0.39-0.85-0.73-1.39-1.04
			c-0.77-0.39-1.55-0.62-2.32-0.7c-0.77-0.08-1.51,0.16-2.2,0.7c-0.85,0.62-1.82,1.24-2.9,1.86c-0.23,0.16-0.48,0.33-0.75,0.52
			c-0.27,0.19-0.48,0.37-0.64,0.52c-1.01,1.01-2.01,1.9-3.02,2.67c-0.54,0.54-1.03,1.12-1.45,1.74c-0.43,0.62-0.83,1.24-1.22,1.86
			c-0.39,0.85-0.81,1.7-1.28,2.55c-0.46,0.85-0.93,1.7-1.39,2.55c-0.16,0.39-0.27,0.71-0.35,0.99c-0.08,0.27-0.19,0.56-0.35,0.87
			c-0.16,0.54-0.35,1.06-0.58,1.57c-0.23,0.5-0.46,1.03-0.7,1.57c-0.16,0.39-0.29,0.77-0.41,1.16c-0.12,0.39-0.25,0.77-0.41,1.16
			l-0.58,1.51c-0.46,0.85-0.79,1.93-0.99,3.25c-0.19,1.32-0.43,2.48-0.7,3.48c-0.27,1.01-0.66,1.61-1.16,1.8
			c-0.5,0.19-1.26-0.41-2.26-1.8l-1.97-0.81c-0.46-0.15-0.77-0.23-0.93-0.23c-0.39,0.08-0.75,0.13-1.1,0.17
			c-0.35,0.04-0.68,0.13-0.99,0.29c-3.4,1.08-6.19,2.82-8.35,5.22c-1.08,1.08-2.05,2.26-2.9,3.54c-0.85,1.28-1.66,2.57-2.44,3.89
			c-0.7,1.24-1.22,2.53-1.57,3.89c-0.29,1.14-0.61,2.3-0.93,3.47c-0.59,1.07-1.17,2.14-1.74,3.19c-1.04,1.97-2.26,3.93-3.65,5.86
			c-1.08,2.01-1.72,3.52-1.91,4.52c-0.19,1.01-0.6,1.93-1.22,2.78c-0.54,0.7-1.04,1.55-1.51,2.55c-0.31,0.46-0.46,0.75-0.46,0.87
			s0.02,0.19,0.06,0.23c0.04,0.04,0.04,0.1,0,0.17c-0.04,0.08-0.21,0.35-0.52,0.81c-0.16,0.16-0.29,0.29-0.41,0.41
			c-0.12,0.12-0.25,0.25-0.41,0.41c-0.62,0.23-1.08,0.48-1.39,0.75c-0.31,0.27-1.04,0.48-2.2,0.64h0.12
			c-0.16,0.15-0.23,0.35-0.23,0.58c-0.39-0.08-0.7-0.21-0.93-0.41c-0.23-0.19-0.5-0.37-0.81-0.52c-0.16-0.23-0.43-0.5-0.81-0.81
			c0.31-0.23,0.46-0.23,0.46,0c0.15,0.15,0.23,0.29,0.23,0.41s0.04,0.25,0.12,0.41c0.15-0.16,0.31-0.23,0.46-0.23
			c0.15,0,0.31-0.04,0.46-0.12c-0.62-0.62-1.22-1.2-1.8-1.74c-0.58-0.54-1.06-1.24-1.45-2.09c-0.46-0.46-0.66-0.96-0.58-1.51
			c0.08-0.23-0.04-0.58-0.35-1.04c-0.16-0.54-0.39-0.93-0.7-1.16c-0.23-0.77-0.45-1.53-0.64-2.26c-0.19-0.73-0.33-1.53-0.41-2.38
			c-0.08-0.39-0.1-0.73-0.06-1.04c0.04-0.31-0.02-0.66-0.17-1.04c-0.08-0.08-0.12-0.23-0.12-0.46v-3.02
			c0.08-0.39,0.13-0.77,0.17-1.16c0.04-0.38-0.02-0.77-0.17-1.16c-0.08-0.31-0.1-0.6-0.06-0.87c0.04-0.27,0.06-0.56,0.06-0.87
			c0.31-0.31,0.39-0.58,0.23-0.81c0-0.39,0.04-0.75,0.12-1.1c0.08-0.35,0.08-0.71,0-1.1c0.39-1.08,0.62-2.01,0.7-2.78
			c0.08-0.46,0.15-0.95,0.23-1.45c0.08-0.5,0.19-0.99,0.35-1.45c0.15-0.62,0.39-1.04,0.7-1.28c0.31-0.62,0.42-1.06,0.35-1.33
			c-0.08-0.27,0.12-0.71,0.58-1.33c0.54-0.62,1.06-1.28,1.57-1.97c0.5-0.7,0.87-1.47,1.1-2.32c0.15-0.38,0.37-0.71,0.64-0.99
			c0.27-0.27,0.56-0.56,0.87-0.87c0.85-0.54,1.43-1.24,1.74-2.09c0.39-1.24,1-2.28,1.86-3.13c0.54-0.77,1-1.74,1.39-2.9
			c0.08-0.39,0.15-0.71,0.23-0.99c0.08-0.27,0.19-0.6,0.35-0.99c0.23-0.46,0.44-0.93,0.64-1.39c0.19-0.46,0.37-0.93,0.52-1.39
			c0.54-1.16,1.04-2.09,1.51-2.78c0.31-0.54,0.54-1.2,0.7-1.97c0.08-0.15,0.1-0.27,0.06-0.35c-0.04-0.08-0.02-0.19,0.06-0.35
			c0.31-0.46,0.48-0.95,0.52-1.45c0.04-0.5,0.06-0.99,0.06-1.45l0.35-2.55c0.15-0.62,0.19-1.26,0.12-1.91
			c-0.08-0.66-0.16-1.29-0.23-1.91c-0.16-0.46-0.31-0.77-0.46-0.93c-0.62-0.39-1.12-0.77-1.51-1.16c-0.39-0.39-0.85-0.73-1.39-1.04
			c-0.77-0.39-1.55-0.62-2.32-0.7c-0.77-0.08-1.51,0.16-2.2,0.7c-0.85,0.62-1.82,1.24-2.9,1.86c-0.23,0.16-0.48,0.33-0.75,0.52
			c-0.27,0.19-0.48,0.37-0.64,0.52c-1.01,1.01-2.01,1.9-3.02,2.67c-0.54,0.54-1.03,1.12-1.45,1.74c-0.43,0.62-0.83,1.24-1.22,1.86
			c-0.39,0.85-0.81,1.7-1.28,2.55c-0.46,0.85-0.93,1.7-1.39,2.55c-0.16,0.39-0.27,0.72-0.35,0.99c-0.08,0.27-0.19,0.56-0.35,0.87
			c-0.16,0.54-0.35,1.06-0.58,1.57c-0.23,0.5-0.46,1.03-0.7,1.57c-0.16,0.39-0.29,0.77-0.41,1.16c-0.12,0.39-0.25,0.77-0.41,1.16
			l-0.58,1.51c-0.46,0.85-0.79,1.93-0.99,3.25c-0.19,1.32-0.43,2.48-0.7,3.48c-0.27,1.01-0.66,1.61-1.16,1.8
			c-0.5,0.19-1.26-0.41-2.26-1.8l-1.97-0.81c-0.46-0.15-0.77-0.23-0.93-0.23c-0.39,0.08-0.75,0.14-1.1,0.17
			c-0.35,0.04-0.68,0.14-0.99,0.29c-3.4,1.08-6.19,2.82-8.35,5.22c-1.08,1.08-2.05,2.26-2.9,3.54c-0.85,1.28-1.66,2.57-2.44,3.89
			c-0.7,1.24-1.22,2.53-1.57,3.88c-0.07,0.29-0.16,0.59-0.24,0.89c-0.34,0.58-0.67,1.17-0.98,1.73c-0.54,0.93-1.22,1.88-2.03,2.84
			c-0.81,0.97-1.68,1.88-2.61,2.73c-0.93,0.85-1.82,1.61-2.67,2.26c-0.85,0.66-1.62,1.14-2.32,1.45c-1.01,0.31-1.99,0.48-2.96,0.52
			c-0.97,0.04-1.82,0-2.55-0.12c-0.74-0.12-1.32-0.33-1.74-0.64c-0.43-0.31-0.6-0.66-0.52-1.04c0-0.39,0.46-2.55,1.39-6.5
			c0.39-0.46,0.6-0.99,0.64-1.57c0.04-0.58,0.17-1.14,0.41-1.68c0.23-0.46,0.44-0.93,0.64-1.39c0.19-0.46,0.25-0.89,0.17-1.28
			c0.31-0.54,0.48-0.75,0.52-0.64c0.04,0.12,0.13-0.02,0.29-0.41c0.54-1.31,0.91-2.55,1.1-3.71c0.19-1.16,0.48-2.28,0.87-3.37
			c-0.16-0.15-0.21-0.33-0.17-0.52c0.04-0.19-0.02-0.41-0.17-0.64c-0.23-0.15-0.35-0.27-0.35-0.35c0-0.08,0-0.13,0-0.17
			c0-0.04-0.04-0.06-0.12-0.06c-0.08,0-0.35,0-0.81,0c-0.23-0.08-0.39-0.12-0.46-0.12c-0.08,0-0.43,0.08-1.04,0.23
			c-0.39,0.46-0.7,0.89-0.93,1.28c-0.23,0.39-0.43,0.85-0.58,1.39c-0.46,0.62-0.93,1.28-1.39,1.97s-0.89,1.43-1.28,2.2
			c-0.31,0.62-0.52,0.97-0.64,1.04c-0.12,0.08-0.37,0.5-0.75,1.28c-0.16,0.31-0.33,0.64-0.52,0.99c-0.19,0.35-0.48,0.72-0.87,1.1
			c-0.23,0.31-0.45,0.52-0.64,0.64c-0.19,0.12-0.39,0.21-0.58,0.29c-0.19,0.08-0.39,0.17-0.58,0.29c-0.19,0.12-0.41,0.33-0.64,0.64
			c-0.77,0.93-1.95,1.55-3.54,1.86c-1.59,0.31-3.07,0.85-4.47,1.62c-0.16,0.08-0.29,0.02-0.41-0.17c-0.12-0.19-0.23-0.42-0.35-0.7
			c-0.12-0.27-0.23-0.54-0.35-0.81c-0.12-0.27-0.21-0.48-0.29-0.64c-0.31-0.23-0.39-0.7-0.23-1.39c0.15-0.7,0.31-1.28,0.46-1.74
			c0.31-0.62,0.52-1.18,0.64-1.68c0.12-0.5,0.25-1.06,0.41-1.68c0.08-0.15,0.13-0.46,0.17-0.93c0.04-0.46,0.1-0.95,0.17-1.45
			c0.08-0.5,0.17-0.97,0.29-1.39c0.12-0.42,0.25-0.75,0.41-0.99c0.15-0.7,0.42-1.53,0.81-2.49c0.39-0.97,0.77-1.97,1.16-3.02
			c0.39-1.04,0.77-2.07,1.16-3.07c0.39-1,0.66-1.86,0.81-2.55c0-0.23,0-0.44,0-0.64s-0.08-0.37-0.23-0.52
			c-0.23-0.23-0.39-0.46-0.46-0.7c-0.08-0.23-0.23-0.39-0.46-0.46c-0.62-0.85-1.47-1.28-2.55-1.28c-0.31,0-0.48,0.06-0.52,0.17
			c-0.04,0.12-0.06,0.27-0.06,0.46c0,0.19-0.06,0.39-0.17,0.58c-0.12,0.19-0.41,0.41-0.87,0.64c-0.31,0.31-0.66,0.5-1.04,0.58
			c-0.39,0.08-0.77,0.19-1.16,0.35c-0.31,0.16-0.6,0.33-0.87,0.52c-0.27,0.19-0.48,0.48-0.64,0.87c-0.46,0.7-0.85,1.38-1.16,2.03
			c-0.31,0.66-0.62,1.29-0.93,1.91c-0.23,0.62-0.75,1.61-1.57,2.96c-0.81,1.35-1.66,2.78-2.55,4.29c-0.89,1.51-1.7,2.96-2.44,4.35
			c-0.73,1.39-1.18,2.44-1.33,3.13c-0.39,0.93-0.62,1.86-0.7,2.78c-0.08,0.93-0.04,1.62,0.12,2.09c0.16,0.93,0.29,1.7,0.41,2.32
			s0.29,1.16,0.52,1.62c0.23,0.46,0.56,0.87,0.99,1.22s0.99,0.75,1.68,1.22c0.39,0.23,1.1,0.46,2.15,0.7
			c1.04,0.23,1.84,0.35,2.38,0.35c0.62-0.15,1.49-0.27,2.61-0.35c1.12-0.08,2.18-0.39,3.19-0.93c1-0.62,2.15-1.31,3.42-2.09
			c1.28-0.77,2.34-1.58,3.19-2.44v0.46c-0.23,1.01-0.39,1.9-0.46,2.67c-0.08,0.77-0.1,1.51-0.06,2.2c0.04,0.7,0.12,1.41,0.23,2.15
			c0.12,0.74,0.25,1.57,0.41,2.49c0.15,1.01,0.79,1.74,1.91,2.2c1.12,0.46,2.36,0.75,3.71,0.87c1.35,0.12,2.67,0.08,3.94-0.12
			c1.28-0.19,2.18-0.44,2.73-0.75c0.15-0.15,0.33-0.29,0.52-0.41c0.19-0.12,0.52-0.1,0.99,0.06c0.15-0.15,0.31-0.29,0.46-0.41
			c0.15-0.12,0.42-0.25,0.81-0.41c0.54-0.31,0.93-0.54,1.16-0.7c0.23-0.15,0.54-0.42,0.93-0.81c0.54-0.23,0.91-0.42,1.1-0.58
			c0.19-0.15,0.56-0.31,1.1-0.46c1.16-0.93,2.4-2.09,3.71-3.48c1.08-1.14,1.97-2.15,2.68-3.03c0,0.2-0.01,0.4-0.01,0.6
			c-0.08,0.16-0.1,0.35-0.06,0.58c0.04,0.23,0.06,0.46,0.06,0.7c0.08,0.23,0.14,0.45,0.17,0.64c0.04,0.19,0.06,0.41,0.06,0.64
			c-0.08,1.39,0.23,2.75,0.93,4.06c1,2.17,2.47,3.75,4.41,4.76c0.7,0.39,1.43,0.72,2.2,0.99c0.77,0.27,1.51,0.48,2.2,0.64
			c1.24,0.31,2.24,0.08,3.02-0.7c0.23-0.23,0.46-0.39,0.7-0.46c0.23-0.08,0.5-0.19,0.81-0.35c1.93-0.54,3.13-1.89,3.6-4.06
			c0.23-1,0.62-1.82,1.16-2.44l0.7-0.7c0,0.16,0.04,0.25,0.12,0.29c0.08,0.04,0.15,0.14,0.23,0.29c-0.08,0.46-0.04,1.08,0.12,1.86
			c0.08,0.62,0.15,1.18,0.23,1.68c0.08,0.5,0.19,1.03,0.35,1.57c0.08,0.46,0.19,0.93,0.35,1.39c0.15,0.46,0.19,0.89,0.12,1.28
			c0,0.39,0.02,0.68,0.06,0.87c0.04,0.19,0.17,0.45,0.41,0.75c0.08,0,0.19,0.19,0.35,0.58c0.15,0.77,0.39,1.49,0.7,2.15
			c0.31,0.66,0.62,1.29,0.93,1.91c0.54,0.85,1.12,1.7,1.74,2.55c0.62,0.85,1.35,1.58,2.2,2.2c0.46,0.62,0.85,1.06,1.16,1.33
			c0.31,0.27,0.62,0.46,0.93,0.58c0.31,0.12,0.62,0.23,0.93,0.35c0.31,0.12,0.77,0.29,1.39,0.52c0.62,0.23,1.16,0.39,1.62,0.46
			c0.46,0.08,0.97,0.12,1.51,0.12c0.15-0.16,0.25-0.29,0.29-0.41c0.04-0.12,0.1-0.21,0.17-0.29c0.7-0.31,1.33-0.64,1.91-0.99
			s1.22-0.72,1.91-1.1c0.39-0.31,0.81-0.6,1.28-0.87c0.46-0.27,0.85-0.6,1.16-0.99c0.46-0.31,0.87-0.66,1.22-1.04
			c0.35-0.39,0.71-0.77,1.1-1.16l1.39-1.97c0.62-1.01,1.08-1.97,1.39-2.9c0.15-0.54,0.39-0.97,0.7-1.28l1.62-2.2
			c0-0.08,0.12-0.19,0.35-0.35c0.08-0.46,0.13-0.83,0.17-1.1c0.04-0.27,0.12-0.56,0.23-0.87c0.12-0.31,0.31-0.68,0.58-1.1
			c0.27-0.42,0.68-0.99,1.22-1.68l1.04-1.28c-0.39-0.39-0.62-0.6-0.7-0.64c-0.08-0.04-0.1-0.06-0.06-0.06
			c0.04,0,0.13-0.06,0.29-0.17c0.15-0.12,0.31-0.41,0.46-0.87c0.54-1.16,1.16-2.03,1.86-2.61c0.15-0.12,0.3-0.26,0.45-0.41
			c0,0.06,0.02,0.12,0.02,0.18c0.08,0.23,0.14,0.45,0.17,0.64c0.04,0.19,0.06,0.41,0.06,0.64c-0.08,1.39,0.23,2.75,0.93,4.06
			c1,2.17,2.47,3.75,4.41,4.76c0.7,0.39,1.43,0.71,2.2,0.99c0.77,0.27,1.51,0.48,2.2,0.64c1.24,0.31,2.24,0.08,3.02-0.7
			c0.23-0.23,0.46-0.39,0.7-0.46c0.23-0.08,0.5-0.19,0.81-0.35c1.93-0.54,3.13-1.89,3.6-4.06c0.23-1,0.62-1.82,1.16-2.44l0.7-0.7
			c0,0.16,0.04,0.25,0.12,0.29c0.08,0.04,0.15,0.14,0.23,0.29c-0.08,0.46-0.04,1.08,0.12,1.86c0.08,0.62,0.15,1.18,0.23,1.68
			c0.08,0.5,0.19,1.03,0.35,1.57c0.08,0.46,0.19,0.93,0.35,1.39c0.15,0.46,0.19,0.89,0.12,1.28c0,0.39,0.02,0.68,0.06,0.87
			c0.04,0.19,0.17,0.45,0.41,0.75c0.08,0,0.19,0.19,0.35,0.58c0.15,0.77,0.39,1.49,0.7,2.15c0.31,0.66,0.62,1.29,0.93,1.91
			c0.54,0.85,1.12,1.7,1.74,2.55c0.62,0.85,1.35,1.58,2.2,2.2c0.46,0.62,0.85,1.06,1.16,1.33c0.31,0.27,0.62,0.46,0.93,0.58
			c0.31,0.12,0.62,0.23,0.93,0.35c0.31,0.12,0.77,0.29,1.39,0.52c0.62,0.23,1.16,0.38,1.62,0.46c0.46,0.08,0.97,0.12,1.51,0.12
			c0.15-0.16,0.25-0.29,0.29-0.41c0.04-0.12,0.1-0.21,0.17-0.29c0.7-0.31,1.33-0.64,1.91-0.99c0.58-0.35,1.22-0.72,1.91-1.1
			c0.39-0.31,0.81-0.6,1.28-0.87c0.46-0.27,0.85-0.6,1.16-0.99c0.46-0.31,0.87-0.66,1.22-1.04c0.35-0.39,0.71-0.77,1.1-1.16
			l1.39-1.97c0.62-1.01,1.08-1.97,1.39-2.9c0.15-0.54,0.39-0.97,0.7-1.28l1.62-2.21c0-0.08,0.12-0.19,0.35-0.35
			c0.08-0.46,0.13-0.83,0.17-1.1c0.04-0.27,0.12-0.56,0.23-0.87c0.12-0.31,0.31-0.68,0.58-1.1c0.27-0.42,0.68-0.99,1.22-1.68
			l1.04-1.28c-0.39-0.39-0.62-0.6-0.7-0.64c-0.08-0.04-0.1-0.06-0.06-0.06c0.04,0,0.13-0.06,0.29-0.17
			c0.15-0.12,0.31-0.41,0.46-0.87c0.54-1.16,1.16-2.03,1.86-2.61c0.64-0.53,1.31-1.32,2.01-2.33c-0.05,0.41-0.1,0.82-0.15,1.23
			c-0.23,1.86-0.39,3.71-0.46,5.57c0.08,0.46,0.19,0.87,0.35,1.22c0.16,0.35,0.27,0.75,0.35,1.22c0.08,0.93,0.27,1.74,0.58,2.44
			c0.31,0.7,0.68,1.33,1.1,1.91s0.85,1.16,1.28,1.74c0.42,0.58,0.75,1.18,0.99,1.8c0.39,0.54,1.02,1.02,1.91,1.45
			c0.89,0.42,1.6,0.79,2.15,1.1c0.54,0.31,1.35,0.46,2.44,0.46c0.85,0,1.76,0.04,2.73,0.12c0.97,0.08,1.93,0.1,2.9,0.06
			c0.97-0.04,1.93-0.17,2.9-0.41c0.97-0.23,1.87-0.7,2.73-1.39c0.08-0.16,0.48-0.58,1.22-1.28c0.73-0.7,1.53-1.45,2.38-2.26
			c0.85-0.81,1.64-1.57,2.38-2.26c0.73-0.7,1.18-1.12,1.33-1.28c1.31-1.31,2.32-2.46,3.02-3.42s1.47-2.18,2.32-3.65
			c0.15-0.23,0.29-0.42,0.41-0.58c0.12-0.15,0.25-0.39,0.41-0.7c0.23-0.54,0.54-1,0.93-1.39c0.15-0.08,0.29-0.17,0.41-0.29
			c0.12-0.12,0.21-0.21,0.29-0.29c0-0.31,0.1-0.7,0.29-1.16c0.07-0.16,0.15-0.33,0.24-0.49c0.02,0.18,0.03,0.37,0.05,0.55
			c0.08,0.81,0.27,1.61,0.58,2.38c0.39,1.08,0.93,1.9,1.62,2.44c0.93,0.85,1.78,1.72,2.55,2.61c0.77,0.89,2.16,1.76,4.18,2.61
			c0.39,0.16,1.04,0.33,1.97,0.52c0.93,0.19,1.91,0.39,2.96,0.58c1.04,0.19,2.05,0.35,3.02,0.46c0.97,0.12,1.64,0.14,2.03,0.06
			c1.55-0.15,2.94-0.42,4.18-0.81l1.04-0.35c1.16-0.23,2.4-0.73,3.71-1.51c0.39-0.23,0.73-0.44,1.04-0.64
			c0.31-0.19,0.66-0.37,1.04-0.52l1.39-0.93c0.31-0.15,0.58-0.35,0.81-0.58c0.23-0.23,0.5-0.46,0.81-0.7
			c0.62-0.46,1.2-0.93,1.74-1.39c0.54-0.46,1.08-1,1.62-1.62c0.62-0.7,1.28-1.35,1.97-1.97c0.23-0.23,0.44-0.44,0.64-0.64
			c0.19-0.19,0.37-0.45,0.52-0.75c-0.16-0.08-0.23-0.13-0.23-0.17c0-0.04-0.04-0.1-0.12-0.17c0.08-0.31,0.21-0.52,0.41-0.64
			c0.19-0.12,0.33-0.37,0.41-0.75l-0.93,0.35l0.46-0.7l1.16-1.39c0.23-0.46,0.48-0.89,0.75-1.28c0.27-0.39,0.6-0.77,0.99-1.16
			c0.23-0.23,0.42-0.54,0.58-0.93c0.23-0.46,0.41-0.93,0.52-1.39c0.12-0.46,0.25-0.97,0.41-1.51c-0.39,0.16-0.68,0.35-0.87,0.58
			C342.84,186.67,342.67,186.94,342.51,187.25z M315.49,182.26l0.81-1.28c0.54-0.62,1.06-1.28,1.57-1.97
			c0.5-0.7,1.06-1.28,1.68-1.74c0.46-0.31,0.99-0.6,1.57-0.87c0.58-0.27,1.1-0.37,1.57-0.29c0.46,0.08,0.77,0.35,0.93,0.81
			c0.15,0.46,0,1.24-0.46,2.32c-0.39,1.01-0.72,1.72-0.99,2.15c-0.27,0.43-0.6,1.14-0.99,2.15c-0.23,0.39-0.5,0.75-0.81,1.1
			c-0.31,0.35-0.66,0.6-1.04,0.75c-0.46,0.08-0.91,0.1-1.33,0.06c-0.43-0.04-0.83-0.25-1.22-0.64c-0.16-0.15-0.33-0.29-0.52-0.41
			c-0.19-0.12-0.37-0.25-0.52-0.41C315.1,183.62,315.02,183.04,315.49,182.26z M277.67,176.58c0.31-1,0.52-1.68,0.64-2.03
			s0.23-0.66,0.35-0.93c0.12-0.27,0.23-0.58,0.35-0.93c0.12-0.35,0.37-1.03,0.75-2.03l1.28-3.6c0.62-1.24,1.2-2.45,1.74-3.65
			c0.54-1.2,1-2.42,1.39-3.65l1.74-3.71c0.23-0.77,0.5-1.49,0.81-2.15c0.31-0.66,0.73-1.29,1.28-1.91c0.46-0.46,0.87-0.95,1.22-1.45
			c0.35-0.5,0.71-0.99,1.1-1.45c1.08-1.62,2.4-2.74,3.94-3.36c0.46-0.31,0.89-0.5,1.28-0.58c0.46-0.23,0.58,0,0.35,0.7
			c-0.23,1.93-0.62,3.67-1.16,5.22c-0.62,1.24-1.22,2.46-1.8,3.65c-0.58,1.2-1.18,2.42-1.8,3.65c-0.85,1.62-1.55,2.94-2.09,3.94
			c-0.54,1.01-1.08,1.95-1.62,2.84c-0.54,0.89-1.1,1.82-1.68,2.78c-0.58,0.97-1.33,2.19-2.26,3.65c-0.77,1.32-1.49,2.48-2.15,3.48
			c-0.66,1.01-1.41,2.17-2.26,3.48c-0.39,0.39-0.7,0.56-0.93,0.52c-0.23-0.04-0.39-0.21-0.46-0.52c-0.08-0.31-0.12-0.66-0.12-1.04
			C277.56,177.12,277.59,176.81,277.67,176.58z M241.71,173.91c0.08-0.85,0.27-1.91,0.58-3.19c0.31-1.28,0.58-2.38,0.81-3.31
			c0.15-1.39,0.5-2.69,1.04-3.88c0.54-1.2,1-2.49,1.39-3.89c0.08-0.39,0.19-0.79,0.35-1.22c0.15-0.42,0.31-0.83,0.46-1.22
			c0.23-0.77,0.31-1.43,0.23-1.97c0-0.54,0.27-0.97,0.81-1.28c0.7-0.7,1.2-1.43,1.51-2.2c0.54-0.85,0.77-1.58,0.7-2.2
			c0-0.15,0.04-0.33,0.12-0.52c0.08-0.19,0.15-0.37,0.23-0.52c0.31-0.39,0.64-0.79,0.99-1.22c0.35-0.42,0.6-0.91,0.75-1.45
			c0.08-0.15,0.17-0.27,0.29-0.35c0.12-0.08,0.25-0.19,0.41-0.35c0.77-0.46,1.35-0.23,1.74,0.7c0.08,0.39,0.13,0.74,0.17,1.04
			c0.04,0.31,0.06,0.66,0.06,1.04c-0.08,1.55-0.17,3.06-0.29,4.52c-0.12,1.47-0.48,2.86-1.1,4.18c-0.16,0.23-0.23,0.48-0.23,0.75
			c0,0.27,0,0.52,0,0.75c0,0.62-0.12,1.2-0.35,1.74c-0.54,1.01-1.04,1.97-1.51,2.9c-0.46,0.93-0.89,1.89-1.28,2.9
			c-0.39,0.77-0.83,1.49-1.33,2.15c-0.5,0.66-0.99,1.3-1.45,1.91c-0.46,0.62-0.87,1.26-1.22,1.91c-0.35,0.66-0.72,1.33-1.1,2.03
			c-1.24,1.32-2.03,1.9-2.38,1.74C241.77,175.26,241.63,174.76,241.71,173.91z M186.27,174.31c0.08-0.85,0.27-1.91,0.58-3.19
			c0.31-1.28,0.58-2.38,0.81-3.31c0.15-1.39,0.5-2.69,1.04-3.89c0.54-1.2,1-2.49,1.39-3.89c0.08-0.39,0.19-0.79,0.35-1.22
			c0.15-0.42,0.31-0.83,0.46-1.22c0.23-0.77,0.31-1.43,0.23-1.97c0-0.54,0.27-0.97,0.81-1.28c0.7-0.7,1.2-1.43,1.51-2.2
			c0.54-0.85,0.77-1.58,0.7-2.2c0-0.15,0.04-0.33,0.12-0.52c0.08-0.19,0.15-0.37,0.23-0.52c0.31-0.39,0.64-0.79,0.99-1.22
			c0.35-0.42,0.6-0.91,0.75-1.45c0.08-0.15,0.17-0.27,0.29-0.35c0.12-0.08,0.25-0.19,0.41-0.35c0.77-0.46,1.35-0.23,1.74,0.7
			c0.08,0.39,0.13,0.74,0.17,1.04c0.04,0.31,0.06,0.66,0.06,1.04c-0.08,1.55-0.17,3.06-0.29,4.52c-0.12,1.47-0.48,2.86-1.1,4.18
			c-0.16,0.23-0.23,0.48-0.23,0.75c0,0.27,0,0.52,0,0.75c0,0.62-0.12,1.2-0.35,1.74c-0.54,1.01-1.04,1.97-1.51,2.9
			c-0.46,0.93-0.89,1.9-1.28,2.9c-0.39,0.77-0.83,1.49-1.33,2.15c-0.5,0.66-0.99,1.3-1.45,1.91c-0.46,0.62-0.87,1.26-1.22,1.91
			c-0.35,0.66-0.72,1.33-1.1,2.03c-1.24,1.32-2.03,1.9-2.38,1.74C186.33,175.67,186.19,175.16,186.27,174.31z M170.14,193.34
			c-0.16,0.85-0.16,1.66,0,2.44l-0.23,2.32c0,0.16-0.02,0.27-0.06,0.35c-0.04,0.08-0.06,0.19-0.06,0.35
			c-0.46,0.93-1.04,1.74-1.74,2.44c-0.54,0.62-1.08,1.2-1.62,1.74c-0.54,0.54-1.04,1.12-1.51,1.74c-0.31,0.31-0.62,0.62-0.93,0.93
			c-0.31,0.31-0.7,0.54-1.16,0.7c-0.23-0.23-0.35-0.39-0.35-0.46c-0.62-1.08-0.91-2.16-0.87-3.25c0.04-1.08,0.17-2.16,0.41-3.25
			l1.62-3.25l0.58-1.04c0.46-0.85,0.87-1.68,1.22-2.49c0.35-0.81,0.83-1.57,1.45-2.26c1.78-3.02,3.02-4.08,3.71-3.19
			C171.3,188.02,171.15,190.09,170.14,193.34z M183.02,211.55v0.12h-0.12L183.02,211.55z M182.67,210.74l0.12,0.12
			c-0.08,0-0.19-0.04-0.35-0.12H182.67z M181.51,220.83v0.12h-0.12C181.4,220.87,181.43,220.83,181.51,220.83z M182.32,223.03
			c-1.01-0.31-1.86-0.74-2.55-1.28c-0.7-0.54-1.35-1.2-1.97-1.97l-0.46-0.93l-0.12-0.23c-0.23-0.08-0.35-0.19-0.35-0.35l0.23-0.12
			l0.35,0.35v0.46h1.04c-0.16,0-0.27,0.02-0.35,0.06c-0.08,0.04-0.08,0.06,0,0.06l4.29,3.25c0.15,0.15,0.29,0.29,0.41,0.41
			c0.12,0.12,0.25,0.25,0.41,0.41C182.71,223.15,182.4,223.11,182.32,223.03z M183.48,212.71c0-0.08-0.04-0.15-0.12-0.23l0.12-0.12
			c0,0.08,0.04,0.14,0.12,0.17c0.08,0.04,0.12,0.1,0.12,0.17H183.48z M183.48,204.94c0.39,0.39,0.64,0.74,0.75,1.04
			c0.12,0.31,0.25,0.66,0.41,1.04c0.39,0.85,0.66,1.59,0.81,2.2l0.23,0.35h-0.23c0.08-0.08,0.08-0.19,0-0.35
			c-0.16,0-0.23-0.12-0.23-0.35c-0.39-0.62-0.74-1.24-1.04-1.86C183.87,206.41,183.64,205.71,183.48,204.94z M187.66,215.49
			c-0.46-0.31-0.7-0.54-0.7-0.7c-0.46-0.54-0.89-1.08-1.28-1.62c-0.39-0.54-0.81-1.12-1.28-1.74c0.23-0.15,0.37-0.19,0.41-0.12
			c0.04,0.08,0.1,0.16,0.17,0.23c0.85,0.85,1.43,1.7,1.74,2.55c0.15,0.15,0.33,0.31,0.52,0.46c0.19,0.15,0.33,0.31,0.41,0.46V215.49
			z M225.59,192.93c-0.16,0.85-0.16,1.66,0,2.44l-0.23,2.32c0,0.16-0.02,0.27-0.06,0.35c-0.04,0.08-0.06,0.19-0.06,0.35
			c-0.46,0.93-1.04,1.74-1.74,2.44c-0.54,0.62-1.08,1.2-1.62,1.74c-0.54,0.54-1.04,1.12-1.51,1.74c-0.31,0.31-0.62,0.62-0.93,0.93
			c-0.31,0.31-0.7,0.54-1.16,0.7c-0.23-0.23-0.35-0.39-0.35-0.46c-0.62-1.08-0.91-2.16-0.87-3.25c0.04-1.08,0.17-2.16,0.41-3.25
			l1.62-3.25l0.58-1.04c0.46-0.85,0.87-1.68,1.22-2.49c0.35-0.81,0.83-1.57,1.45-2.26c1.78-3.02,3.02-4.08,3.71-3.19
			C226.75,187.62,226.59,189.69,225.59,192.93z M238.46,211.15v0.12h-0.12L238.46,211.15z M238.12,210.33l0.12,0.12
			c-0.08,0-0.19-0.04-0.35-0.12H238.12z M236.96,220.43v0.12h-0.12C236.84,220.46,236.88,220.43,236.96,220.43z M237.77,222.63
			c-1.01-0.31-1.86-0.74-2.55-1.28c-0.7-0.54-1.35-1.2-1.97-1.97l-0.46-0.93l-0.12-0.23c-0.23-0.08-0.35-0.19-0.35-0.35l0.23-0.12
			l0.35,0.35v0.46h1.04c-0.16,0-0.27,0.02-0.35,0.06c-0.08,0.04-0.08,0.06,0,0.06l4.29,3.25c0.15,0.15,0.29,0.29,0.41,0.41
			c0.12,0.12,0.25,0.25,0.41,0.41C238.15,222.75,237.84,222.71,237.77,222.63z M238.93,212.31c0-0.08-0.04-0.15-0.12-0.23l0.12-0.12
			c0,0.08,0.04,0.14,0.12,0.17c0.08,0.04,0.12,0.1,0.12,0.17H238.93z M238.93,204.53c0.39,0.39,0.64,0.74,0.75,1.04
			c0.12,0.31,0.25,0.66,0.41,1.04c0.39,0.85,0.66,1.59,0.81,2.2l0.23,0.35h-0.23c0.08-0.08,0.08-0.19,0-0.35
			c-0.16,0-0.23-0.12-0.23-0.35c-0.39-0.62-0.74-1.24-1.04-1.86C239.31,206,239.08,205.31,238.93,204.53z M243.1,215.09
			c-0.46-0.31-0.7-0.54-0.7-0.7c-0.46-0.54-0.89-1.08-1.28-1.62c-0.39-0.54-0.81-1.12-1.28-1.74c0.23-0.15,0.37-0.19,0.41-0.12
			c0.04,0.08,0.1,0.16,0.17,0.23c0.85,0.85,1.43,1.7,1.74,2.55c0.15,0.15,0.33,0.31,0.52,0.46c0.19,0.15,0.33,0.31,0.41,0.46V215.09
			z M301.39,193.57c0.26-0.4,0.46-0.75,0.61-1.05l-0.32,3.31l-0.23-0.23c-0.11-0.59-0.16-1.2-0.2-1.81
			C301.3,193.72,301.35,193.64,301.39,193.57z M300.87,189.57c0.08-0.31,0.31-0.85,0.7-1.62v0.81c0,0.23-0.08,0.58-0.23,1.04
			c-0.02,0.06-0.02,0.11-0.04,0.17c-0.31,0.53-0.58,1.05-0.81,1.54c0.01-0.1,0.02-0.21,0.04-0.31L300.87,189.57z M303.19,201.17
			c-0.39-0.08-0.66-0.23-0.81-0.46c-0.16-0.23-0.31-0.44-0.46-0.64c-0.15-0.19-0.31-0.41-0.46-0.64c-0.62-1.24-0.99-2.53-1.1-3.89
			c-0.01-0.1-0.01-0.21-0.02-0.32c0.06-0.11,0.12-0.21,0.19-0.32c0.13-0.19,0.24-0.37,0.36-0.55c0,0.18-0.01,0.37-0.01,0.55v0.35
			c0.16,0.77,0.29,1.51,0.41,2.2c0.12,0.7,0.33,1.35,0.64,1.97l0.23,0.23c0.15-0.23,0.17-0.42,0.06-0.58
			c-0.12-0.15-0.17-0.31-0.17-0.46l-0.35-0.93l0.23-0.12c0.15,0.31,0.27,0.62,0.35,0.93c0.08,0.31,0.19,0.66,0.35,1.04
			c0.15,0.31,0.31,0.58,0.46,0.81c0.15,0.23,0.31,0.5,0.46,0.81H303.19z"/>
	</g>
</g>
</svg>
